<svg width="595" height="842" viewBox="0 0 595 842" fill="none" xmlns="http://www.w3.org/2000/svg">
<rect width="595" height="842" fill="white"/>
<rect x="14" y="22" width="567" height="71" fill="colorPrimary"/>
<rect x="51" y="57" width="173" height="744" fill="colorSecondary"/>
<rect x="137" y="224" width="448" height="65" fill="#052F4D"/>
<rect x="137" y="526" width="448" height="65" fill="#052F4D"/>
<path d="M285.091 180C284.716 178.852 284.222 177.824 283.608 176.915C283.006 175.994 282.284 175.21 281.443 174.562C280.614 173.915 279.67 173.42 278.614 173.08C277.557 172.739 276.398 172.568 275.136 172.568C273.068 172.568 271.188 173.102 269.494 174.17C267.801 175.239 266.455 176.812 265.455 178.892C264.455 180.972 263.955 183.523 263.955 186.545C263.955 189.568 264.46 192.119 265.472 194.199C266.483 196.278 267.852 197.852 269.58 198.92C271.307 199.989 273.25 200.523 275.409 200.523C277.409 200.523 279.17 200.097 280.693 199.244C282.227 198.381 283.42 197.165 284.273 195.597C285.136 194.017 285.568 192.159 285.568 190.023L286.864 190.295H276.364V186.545H289.659V190.295C289.659 193.17 289.045 195.67 287.818 197.795C286.602 199.92 284.92 201.568 282.773 202.739C280.636 203.898 278.182 204.477 275.409 204.477C272.318 204.477 269.602 203.75 267.261 202.295C264.932 200.841 263.114 198.773 261.807 196.091C260.511 193.409 259.864 190.227 259.864 186.545C259.864 183.784 260.233 181.301 260.972 179.097C261.722 176.881 262.778 174.994 264.142 173.438C265.506 171.881 267.119 170.688 268.983 169.858C270.847 169.028 272.898 168.614 275.136 168.614C276.977 168.614 278.693 168.892 280.284 169.449C281.886 169.994 283.312 170.773 284.562 171.784C285.824 172.784 286.875 173.983 287.716 175.381C288.557 176.767 289.136 178.307 289.455 180H285.091ZM296.899 204V169.091H308.695C311.422 169.091 313.661 169.557 315.411 170.489C317.161 171.409 318.456 172.676 319.297 174.29C320.138 175.903 320.558 177.739 320.558 179.795C320.558 181.852 320.138 183.676 319.297 185.267C318.456 186.858 317.166 188.108 315.428 189.017C313.689 189.915 311.467 190.364 308.763 190.364H299.217V186.545H308.626C310.49 186.545 311.99 186.273 313.126 185.727C314.274 185.182 315.104 184.409 315.615 183.409C316.138 182.398 316.399 181.193 316.399 179.795C316.399 178.398 316.138 177.176 315.615 176.131C315.092 175.085 314.257 174.278 313.109 173.71C311.962 173.131 310.445 172.841 308.558 172.841H301.126V204H296.899ZM313.331 188.318L321.922 204H317.013L308.558 188.318H313.331ZM327.602 204V169.091H348.67V172.841H331.83V184.636H347.58V188.386H331.83V200.25H348.943V204H327.602ZM353.29 169.091H358.131L367.812 185.386H368.222L377.903 169.091H382.744L370.131 189.614V204H365.903V189.614L353.29 169.091ZM388.212 169.091H393.257L405.121 198.068H405.53L417.393 169.091H422.439V204H418.484V177.477H418.143L407.234 204H403.416L392.507 177.477H392.166V204H388.212V169.091ZM435.142 169.091V204H430.915V169.091H435.142ZM471.3 169.091V204H467.209L448.186 176.591H447.845V204H443.618V169.091H447.709L466.8 196.568H467.141V169.091H471.3ZM479.759 204V169.091H500.827V172.841H483.986V184.636H499.736V188.386H483.986V200.25H501.099V204H479.759Z" fill="black"/>
<path d="M250.069 322.256V325.947H239.024V322.256H250.069ZM240.533 313.672V335H235.758V313.672H240.533ZM253.365 313.672V335H248.604V313.672H253.365ZM261.495 319.15V335H256.91V319.15H261.495ZM256.632 315.049C256.632 314.385 256.866 313.843 257.335 313.423C257.804 312.993 258.419 312.778 259.181 312.778C259.942 312.778 260.558 312.993 261.026 313.423C261.505 313.843 261.744 314.385 261.744 315.049C261.744 315.703 261.505 316.245 261.026 316.675C260.558 317.095 259.942 317.305 259.181 317.305C258.419 317.305 257.804 317.095 257.335 316.675C256.866 316.245 256.632 315.703 256.632 315.049ZM273.229 330.591C273.229 330.298 273.136 330.039 272.95 329.814C272.774 329.59 272.452 329.385 271.983 329.199C271.524 329.014 270.875 328.828 270.035 328.643C269.244 328.477 268.507 328.262 267.823 327.998C267.14 327.725 266.544 327.397 266.036 327.017C265.528 326.626 265.133 326.167 264.85 325.64C264.566 325.103 264.425 324.492 264.425 323.809C264.425 323.145 264.566 322.515 264.85 321.919C265.143 321.323 265.562 320.796 266.109 320.337C266.666 319.878 267.34 319.517 268.131 319.253C268.932 318.989 269.84 318.857 270.855 318.857C272.252 318.857 273.458 319.077 274.474 319.517C275.489 319.946 276.271 320.552 276.817 321.333C277.364 322.104 277.638 322.988 277.638 323.984H273.067C273.067 323.574 272.989 323.218 272.833 322.915C272.677 322.612 272.438 322.378 272.115 322.212C271.793 322.036 271.368 321.948 270.841 321.948C270.431 321.948 270.069 322.021 269.757 322.168C269.454 322.305 269.215 322.495 269.039 322.739C268.873 322.983 268.79 323.267 268.79 323.589C268.79 323.813 268.839 324.019 268.937 324.204C269.044 324.38 269.205 324.546 269.42 324.702C269.645 324.849 269.933 324.98 270.284 325.098C270.646 325.215 271.085 325.327 271.603 325.435C272.706 325.64 273.712 325.928 274.62 326.299C275.538 326.67 276.271 327.183 276.817 327.837C277.374 328.491 277.652 329.355 277.652 330.43C277.652 331.133 277.491 331.777 277.169 332.363C276.856 332.949 276.402 333.462 275.807 333.901C275.211 334.341 274.498 334.683 273.668 334.927C272.838 335.171 271.9 335.293 270.855 335.293C269.361 335.293 268.097 335.024 267.062 334.487C266.026 333.95 265.245 333.276 264.718 332.466C264.2 331.646 263.941 330.806 263.941 329.946H268.233C268.253 330.474 268.385 330.903 268.629 331.235C268.883 331.567 269.21 331.812 269.61 331.968C270.011 332.114 270.46 332.188 270.958 332.188C271.456 332.188 271.871 332.119 272.203 331.982C272.535 331.846 272.789 331.66 272.965 331.426C273.141 331.182 273.229 330.903 273.229 330.591ZM288.258 319.15V322.358H278.854V319.15H288.258ZM281.007 315.225H285.592V330.034C285.592 330.474 285.646 330.811 285.753 331.045C285.86 331.279 286.036 331.445 286.28 331.543C286.524 331.631 286.837 331.675 287.218 331.675C287.491 331.675 287.726 331.665 287.921 331.646C288.116 331.626 288.297 331.602 288.463 331.572V334.883C288.072 335.01 287.657 335.107 287.218 335.176C286.778 335.254 286.3 335.293 285.782 335.293C284.796 335.293 283.941 335.132 283.219 334.81C282.506 334.487 281.959 333.979 281.578 333.286C281.197 332.583 281.007 331.67 281.007 330.547V315.225ZM289.386 327.236V326.929C289.386 325.767 289.552 324.697 289.884 323.721C290.216 322.734 290.704 321.88 291.349 321.157C291.993 320.435 292.784 319.873 293.722 319.473C294.659 319.062 295.733 318.857 296.944 318.857C298.175 318.857 299.259 319.062 300.196 319.473C301.144 319.873 301.939 320.435 302.584 321.157C303.229 321.88 303.717 322.734 304.049 323.721C304.381 324.697 304.547 325.767 304.547 326.929V327.236C304.547 328.389 304.381 329.458 304.049 330.444C303.717 331.421 303.229 332.275 302.584 333.008C301.939 333.73 301.148 334.292 300.211 334.692C299.273 335.093 298.194 335.293 296.974 335.293C295.763 335.293 294.684 335.093 293.736 334.692C292.789 334.292 291.993 333.73 291.349 333.008C290.704 332.275 290.216 331.421 289.884 330.444C289.552 329.458 289.386 328.389 289.386 327.236ZM293.971 326.929V327.236C293.971 327.861 294.02 328.447 294.117 328.994C294.225 329.541 294.396 330.02 294.63 330.43C294.864 330.84 295.172 331.162 295.553 331.396C295.943 331.621 296.417 331.733 296.974 331.733C297.53 331.733 297.999 331.621 298.38 331.396C298.761 331.162 299.068 330.84 299.303 330.43C299.537 330.02 299.703 329.541 299.801 328.994C299.908 328.447 299.962 327.861 299.962 327.236V326.929C299.962 326.313 299.908 325.737 299.801 325.2C299.703 324.653 299.537 324.17 299.303 323.75C299.068 323.33 298.756 323.003 298.365 322.769C297.984 322.534 297.511 322.417 296.944 322.417C296.397 322.417 295.934 322.534 295.553 322.769C295.172 323.003 294.864 323.33 294.63 323.75C294.396 324.17 294.225 324.653 294.117 325.2C294.02 325.737 293.971 326.313 293.971 326.929ZM311.534 322.842V335H306.964V319.15H311.256L311.534 322.842ZM316.266 319.033L316.192 323.296C315.997 323.267 315.743 323.242 315.431 323.223C315.118 323.193 314.85 323.179 314.625 323.179C314.039 323.179 313.531 323.252 313.102 323.398C312.682 323.535 312.33 323.74 312.047 324.014C311.773 324.287 311.568 324.629 311.432 325.039C311.295 325.439 311.227 325.903 311.227 326.431L310.362 326.006C310.362 324.961 310.465 324.004 310.67 323.135C310.875 322.266 311.173 321.514 311.563 320.879C311.954 320.234 312.433 319.736 312.999 319.385C313.565 319.033 314.21 318.857 314.933 318.857C315.167 318.857 315.406 318.872 315.65 318.901C315.895 318.931 316.1 318.975 316.266 319.033ZM322.96 319.15V335H318.375V319.15H322.96ZM318.097 315.049C318.097 314.385 318.331 313.843 318.8 313.423C319.269 312.993 319.884 312.778 320.646 312.778C321.407 312.778 322.022 312.993 322.491 313.423C322.97 313.843 323.209 314.385 323.209 315.049C323.209 315.703 322.97 316.245 322.491 316.675C322.022 317.095 321.407 317.305 320.646 317.305C319.884 317.305 319.269 317.095 318.8 316.675C318.331 316.245 318.097 315.703 318.097 315.049ZM332.877 331.733C333.365 331.733 333.79 331.641 334.151 331.455C334.513 331.27 334.791 331.011 334.986 330.679C335.191 330.337 335.294 329.927 335.294 329.448H339.601C339.601 330.601 339.303 331.616 338.707 332.495C338.121 333.374 337.33 334.062 336.334 334.561C335.338 335.049 334.215 335.293 332.965 335.293C331.734 335.293 330.66 335.093 329.742 334.692C328.824 334.282 328.058 333.711 327.442 332.979C326.827 332.246 326.363 331.396 326.051 330.43C325.748 329.453 325.597 328.398 325.597 327.266V326.885C325.597 325.762 325.748 324.712 326.051 323.735C326.363 322.759 326.827 321.904 327.442 321.172C328.058 320.439 328.819 319.873 329.728 319.473C330.646 319.062 331.72 318.857 332.95 318.857C334.249 318.857 335.396 319.106 336.393 319.604C337.398 320.103 338.185 320.82 338.751 321.758C339.317 322.686 339.601 323.804 339.601 325.112H335.294C335.294 324.604 335.201 324.15 335.016 323.75C334.84 323.34 334.566 323.018 334.195 322.783C333.834 322.539 333.385 322.417 332.848 322.417C332.291 322.417 331.832 322.539 331.471 322.783C331.119 323.018 330.851 323.345 330.665 323.765C330.479 324.185 330.353 324.663 330.284 325.2C330.216 325.728 330.182 326.289 330.182 326.885V327.266C330.182 327.871 330.216 328.447 330.284 328.994C330.353 329.531 330.479 330.005 330.665 330.415C330.86 330.825 331.134 331.147 331.485 331.382C331.837 331.616 332.301 331.733 332.877 331.733ZM350.265 331.221V324.424C350.265 323.945 350.191 323.535 350.045 323.193C349.898 322.852 349.669 322.583 349.356 322.388C349.044 322.192 348.639 322.095 348.141 322.095C347.721 322.095 347.354 322.168 347.042 322.314C346.739 322.461 346.505 322.671 346.339 322.944C346.183 323.218 346.104 323.555 346.104 323.955H341.534C341.534 323.242 341.695 322.578 342.018 321.963C342.34 321.348 342.799 320.806 343.395 320.337C344 319.868 344.723 319.507 345.562 319.253C346.402 318.989 347.345 318.857 348.39 318.857C349.63 318.857 350.733 319.067 351.7 319.487C352.677 319.897 353.448 320.518 354.015 321.348C354.581 322.168 354.864 323.203 354.864 324.453V331.089C354.864 332.046 354.918 332.798 355.025 333.345C355.143 333.882 355.309 334.351 355.523 334.751V335H350.909C350.694 334.541 350.533 333.975 350.426 333.301C350.318 332.617 350.265 331.924 350.265 331.221ZM350.836 325.332L350.865 327.852H348.595C348.087 327.852 347.647 327.915 347.276 328.042C346.915 328.169 346.622 328.345 346.397 328.569C346.173 328.784 346.007 329.038 345.899 329.331C345.802 329.614 345.753 329.927 345.753 330.269C345.753 330.591 345.831 330.884 345.987 331.147C346.144 331.401 346.358 331.602 346.632 331.748C346.905 331.895 347.223 331.968 347.584 331.968C348.18 331.968 348.688 331.851 349.107 331.616C349.537 331.382 349.869 331.099 350.104 330.767C350.338 330.425 350.455 330.107 350.455 329.814L351.554 331.719C351.378 332.109 351.163 332.515 350.909 332.935C350.655 333.345 350.333 333.73 349.942 334.092C349.552 334.443 349.078 334.731 348.521 334.956C347.975 335.181 347.315 335.293 346.544 335.293C345.548 335.293 344.645 335.093 343.834 334.692C343.023 334.282 342.374 333.721 341.886 333.008C341.407 332.295 341.168 331.475 341.168 330.547C341.168 329.717 341.319 328.979 341.622 328.335C341.925 327.69 342.379 327.144 342.984 326.694C343.6 326.245 344.371 325.908 345.299 325.684C346.227 325.449 347.311 325.332 348.551 325.332H350.836ZM362.687 312.5V335H358.102V312.5H362.687ZM382.55 317.729L377.042 335H371.944L379.84 313.672H383.062L382.55 317.729ZM387.12 335L381.598 317.729L381.026 313.672H384.293L392.218 335H387.12ZM386.886 327.061V330.752H375.768V327.061H386.886ZM397.652 322.534V335H393.067V319.15H397.374L397.652 322.534ZM397.052 326.519L395.909 326.548C395.909 325.356 396.056 324.287 396.349 323.34C396.642 322.393 397.057 321.587 397.594 320.923C398.141 320.249 398.79 319.736 399.542 319.385C400.304 319.033 401.144 318.857 402.062 318.857C402.804 318.857 403.482 318.965 404.098 319.18C404.713 319.395 405.24 319.741 405.68 320.22C406.129 320.688 406.471 321.313 406.705 322.095C406.939 322.866 407.057 323.818 407.057 324.951V335H402.457V324.937C402.457 324.272 402.364 323.76 402.179 323.398C401.993 323.037 401.72 322.783 401.358 322.637C401.007 322.49 400.577 322.417 400.069 322.417C399.532 322.417 399.073 322.524 398.692 322.739C398.312 322.944 397.999 323.232 397.755 323.604C397.511 323.975 397.33 324.409 397.213 324.907C397.105 325.405 397.052 325.942 397.052 326.519ZM418.438 331.221V324.424C418.438 323.945 418.365 323.535 418.219 323.193C418.072 322.852 417.843 322.583 417.53 322.388C417.218 322.192 416.812 322.095 416.314 322.095C415.895 322.095 415.528 322.168 415.216 322.314C414.913 322.461 414.679 322.671 414.513 322.944C414.356 323.218 414.278 323.555 414.278 323.955H409.708C409.708 323.242 409.869 322.578 410.191 321.963C410.514 321.348 410.973 320.806 411.568 320.337C412.174 319.868 412.896 319.507 413.736 319.253C414.576 318.989 415.519 318.857 416.563 318.857C417.804 318.857 418.907 319.067 419.874 319.487C420.851 319.897 421.622 320.518 422.188 321.348C422.755 322.168 423.038 323.203 423.038 324.453V331.089C423.038 332.046 423.092 332.798 423.199 333.345C423.316 333.882 423.482 334.351 423.697 334.751V335H419.083C418.868 334.541 418.707 333.975 418.6 333.301C418.492 332.617 418.438 331.924 418.438 331.221ZM419.01 325.332L419.039 327.852H416.769C416.261 327.852 415.821 327.915 415.45 328.042C415.089 328.169 414.796 328.345 414.571 328.569C414.347 328.784 414.181 329.038 414.073 329.331C413.976 329.614 413.927 329.927 413.927 330.269C413.927 330.591 414.005 330.884 414.161 331.147C414.317 331.401 414.532 331.602 414.806 331.748C415.079 331.895 415.396 331.968 415.758 331.968C416.354 331.968 416.861 331.851 417.281 331.616C417.711 331.382 418.043 331.099 418.277 330.767C418.512 330.425 418.629 330.107 418.629 329.814L419.728 331.719C419.552 332.109 419.337 332.515 419.083 332.935C418.829 333.345 418.507 333.73 418.116 334.092C417.726 334.443 417.252 334.731 416.695 334.956C416.148 335.181 415.489 335.293 414.718 335.293C413.722 335.293 412.818 335.093 412.008 334.692C411.197 334.282 410.548 333.721 410.06 333.008C409.581 332.295 409.342 331.475 409.342 330.547C409.342 329.717 409.493 328.979 409.796 328.335C410.099 327.69 410.553 327.144 411.158 326.694C411.773 326.245 412.545 325.908 413.473 325.684C414.4 325.449 415.484 325.332 416.725 325.332H419.01ZM430.86 312.5V335H426.275V312.5H430.86ZM438.932 333.169L443.077 319.15H447.999L441.627 337.373C441.49 337.773 441.305 338.203 441.07 338.662C440.846 339.121 440.538 339.561 440.147 339.98C439.767 340.4 439.278 340.742 438.683 341.006C438.087 341.27 437.354 341.401 436.485 341.401C436.046 341.401 435.704 341.377 435.46 341.328C435.226 341.289 434.913 341.221 434.522 341.123L434.508 337.798C434.635 337.798 434.747 337.798 434.845 337.798C434.952 337.808 435.06 337.812 435.167 337.812C435.714 337.812 436.153 337.754 436.485 337.637C436.827 337.52 437.091 337.344 437.276 337.109C437.472 336.885 437.628 336.597 437.745 336.245L438.932 333.169ZM437.54 319.15L440.821 330.43L441.378 335.278L438.287 335.439L432.618 319.15H437.54ZM457.916 330.591C457.916 330.298 457.823 330.039 457.638 329.814C457.462 329.59 457.14 329.385 456.671 329.199C456.212 329.014 455.562 328.828 454.723 328.643C453.932 328.477 453.194 328.262 452.511 327.998C451.827 327.725 451.231 327.397 450.724 327.017C450.216 326.626 449.82 326.167 449.537 325.64C449.254 325.103 449.112 324.492 449.112 323.809C449.112 323.145 449.254 322.515 449.537 321.919C449.83 321.323 450.25 320.796 450.797 320.337C451.354 319.878 452.027 319.517 452.818 319.253C453.619 318.989 454.527 318.857 455.543 318.857C456.939 318.857 458.146 319.077 459.161 319.517C460.177 319.946 460.958 320.552 461.505 321.333C462.052 322.104 462.325 322.988 462.325 323.984H457.755C457.755 323.574 457.677 323.218 457.521 322.915C457.364 322.612 457.125 322.378 456.803 322.212C456.48 322.036 456.056 321.948 455.528 321.948C455.118 321.948 454.757 322.021 454.444 322.168C454.142 322.305 453.902 322.495 453.727 322.739C453.561 322.983 453.478 323.267 453.478 323.589C453.478 323.813 453.526 324.019 453.624 324.204C453.731 324.38 453.893 324.546 454.107 324.702C454.332 324.849 454.62 324.98 454.972 325.098C455.333 325.215 455.772 325.327 456.29 325.435C457.394 325.64 458.399 325.928 459.308 326.299C460.226 326.67 460.958 327.183 461.505 327.837C462.062 328.491 462.34 329.355 462.34 330.43C462.34 331.133 462.179 331.777 461.856 332.363C461.544 332.949 461.09 333.462 460.494 333.901C459.898 334.341 459.186 334.683 458.355 334.927C457.525 335.171 456.588 335.293 455.543 335.293C454.049 335.293 452.784 335.024 451.749 334.487C450.714 333.95 449.933 333.276 449.405 332.466C448.888 331.646 448.629 330.806 448.629 329.946H452.921C452.94 330.474 453.072 330.903 453.316 331.235C453.57 331.567 453.897 331.812 454.298 331.968C454.698 332.114 455.147 332.188 455.646 332.188C456.144 332.188 456.559 332.119 456.891 331.982C457.223 331.846 457.477 331.66 457.652 331.426C457.828 331.182 457.916 330.903 457.916 330.591ZM469.708 319.15V335H465.123V319.15H469.708ZM464.845 315.049C464.845 314.385 465.079 313.843 465.548 313.423C466.017 312.993 466.632 312.778 467.394 312.778C468.155 312.778 468.771 312.993 469.239 313.423C469.718 313.843 469.957 314.385 469.957 315.049C469.957 315.703 469.718 316.245 469.239 316.675C468.771 317.095 468.155 317.305 467.394 317.305C466.632 317.305 466.017 317.095 465.548 316.675C465.079 316.245 464.845 315.703 464.845 315.049ZM481.441 330.591C481.441 330.298 481.349 330.039 481.163 329.814C480.987 329.59 480.665 329.385 480.196 329.199C479.737 329.014 479.088 328.828 478.248 328.643C477.457 328.477 476.72 328.262 476.036 327.998C475.353 327.725 474.757 327.397 474.249 327.017C473.741 326.626 473.346 326.167 473.062 325.64C472.779 325.103 472.638 324.492 472.638 323.809C472.638 323.145 472.779 322.515 473.062 321.919C473.355 321.323 473.775 320.796 474.322 320.337C474.879 319.878 475.553 319.517 476.344 319.253C477.145 318.989 478.053 318.857 479.068 318.857C480.465 318.857 481.671 319.077 482.687 319.517C483.702 319.946 484.483 320.552 485.03 321.333C485.577 322.104 485.851 322.988 485.851 323.984H481.28C481.28 323.574 481.202 323.218 481.046 322.915C480.89 322.612 480.65 322.378 480.328 322.212C480.006 322.036 479.581 321.948 479.054 321.948C478.644 321.948 478.282 322.021 477.97 322.168C477.667 322.305 477.428 322.495 477.252 322.739C477.086 322.983 477.003 323.267 477.003 323.589C477.003 323.813 477.052 324.019 477.149 324.204C477.257 324.38 477.418 324.546 477.633 324.702C477.857 324.849 478.146 324.98 478.497 325.098C478.858 325.215 479.298 325.327 479.815 325.435C480.919 325.64 481.925 325.928 482.833 326.299C483.751 326.67 484.483 327.183 485.03 327.837C485.587 328.491 485.865 329.355 485.865 330.43C485.865 331.133 485.704 331.777 485.382 332.363C485.069 332.949 484.615 333.462 484.02 333.901C483.424 334.341 482.711 334.683 481.881 334.927C481.051 335.171 480.113 335.293 479.068 335.293C477.574 335.293 476.31 335.024 475.274 334.487C474.239 333.95 473.458 333.276 472.931 332.466C472.413 331.646 472.154 330.806 472.154 329.946H476.446C476.466 330.474 476.598 330.903 476.842 331.235C477.096 331.567 477.423 331.812 477.823 331.968C478.224 332.114 478.673 332.188 479.171 332.188C479.669 332.188 480.084 332.119 480.416 331.982C480.748 331.846 481.002 331.66 481.178 331.426C481.354 331.182 481.441 330.903 481.441 330.591ZM496.119 313.672H504.308C505.938 313.672 507.35 313.916 508.541 314.404C509.742 314.893 510.665 315.615 511.31 316.572C511.954 317.529 512.276 318.711 512.276 320.117C512.276 321.289 512.086 322.285 511.705 323.105C511.324 323.926 510.787 324.604 510.094 325.142C509.41 325.679 508.609 326.113 507.691 326.445L506.139 327.295H499.166L499.137 323.589H504.322C505.035 323.589 505.626 323.462 506.095 323.208C506.563 322.954 506.915 322.598 507.149 322.139C507.394 321.67 507.516 321.123 507.516 320.498C507.516 319.854 507.394 319.297 507.149 318.828C506.905 318.359 506.544 318.003 506.065 317.759C505.597 317.505 505.011 317.378 504.308 317.378H500.895V335H496.119V313.672ZM507.926 335L503.136 325.522L508.175 325.508L513.038 334.78V335H507.926ZM522.75 335.293C521.49 335.293 520.362 335.093 519.366 334.692C518.37 334.292 517.525 333.74 516.832 333.037C516.148 332.324 515.626 331.504 515.265 330.576C514.903 329.648 514.723 328.657 514.723 327.603V327.046C514.723 325.864 514.889 324.775 515.221 323.779C515.553 322.783 516.036 321.919 516.671 321.187C517.315 320.444 518.106 319.873 519.044 319.473C519.981 319.062 521.051 318.857 522.252 318.857C523.375 318.857 524.376 319.043 525.255 319.414C526.134 319.775 526.876 320.298 527.481 320.981C528.087 321.655 528.546 322.471 528.858 323.428C529.181 324.375 529.342 325.439 529.342 326.621V328.496H516.568V325.552H524.859V325.2C524.859 324.644 524.757 324.155 524.552 323.735C524.356 323.315 524.063 322.993 523.673 322.769C523.292 322.534 522.809 322.417 522.223 322.417C521.666 322.417 521.202 322.534 520.831 322.769C520.46 323.003 520.162 323.335 519.938 323.765C519.723 324.185 519.566 324.678 519.469 325.244C519.371 325.801 519.322 326.401 519.322 327.046V327.603C519.322 328.218 519.405 328.779 519.571 329.287C519.737 329.795 519.981 330.229 520.304 330.591C520.626 330.952 521.017 331.235 521.476 331.44C521.935 331.646 522.457 331.748 523.043 331.748C523.766 331.748 524.454 331.611 525.108 331.338C525.763 331.055 526.329 330.615 526.808 330.02L528.946 332.466C528.624 332.935 528.17 333.389 527.584 333.828C527.008 334.258 526.314 334.609 525.504 334.883C524.693 335.156 523.775 335.293 522.75 335.293ZM536.153 322.197V341.094H531.583V319.15H535.846L536.153 322.197ZM546.041 326.899V327.207C546.041 328.359 545.909 329.429 545.646 330.415C545.382 331.392 544.986 332.246 544.459 332.979C543.941 333.711 543.302 334.282 542.54 334.692C541.778 335.093 540.895 335.293 539.889 335.293C538.932 335.293 538.102 335.093 537.398 334.692C536.705 334.282 536.119 333.716 535.641 332.993C535.172 332.261 534.791 331.426 534.498 330.488C534.215 329.541 533.995 328.53 533.839 327.456V326.855C533.995 325.713 534.22 324.653 534.513 323.677C534.806 322.7 535.187 321.855 535.655 321.143C536.124 320.42 536.705 319.858 537.398 319.458C538.092 319.058 538.917 318.857 539.874 318.857C540.87 318.857 541.754 319.048 542.525 319.429C543.297 319.81 543.941 320.356 544.459 321.069C544.986 321.772 545.382 322.617 545.646 323.604C545.909 324.59 546.041 325.688 546.041 326.899ZM541.456 327.207V326.899C541.456 326.255 541.407 325.664 541.31 325.127C541.212 324.58 541.056 324.106 540.841 323.706C540.626 323.296 540.343 322.979 539.991 322.754C539.64 322.529 539.21 322.417 538.702 322.417C538.155 322.417 537.691 322.505 537.311 322.681C536.93 322.856 536.622 323.115 536.388 323.457C536.153 323.789 535.982 324.199 535.875 324.688C535.777 325.176 535.724 325.732 535.714 326.357V327.969C535.724 328.701 535.826 329.355 536.021 329.932C536.227 330.498 536.544 330.942 536.974 331.265C537.413 331.577 537.999 331.733 538.731 331.733C539.249 331.733 539.679 331.621 540.021 331.396C540.372 331.162 540.65 330.835 540.855 330.415C541.07 329.995 541.222 329.512 541.31 328.965C541.407 328.418 541.456 327.832 541.456 327.207ZM547.813 327.236V326.929C547.813 325.767 547.979 324.697 548.312 323.721C548.644 322.734 549.132 321.88 549.776 321.157C550.421 320.435 551.212 319.873 552.149 319.473C553.087 319.062 554.161 318.857 555.372 318.857C556.603 318.857 557.687 319.062 558.624 319.473C559.571 319.873 560.367 320.435 561.012 321.157C561.656 321.88 562.145 322.734 562.477 323.721C562.809 324.697 562.975 325.767 562.975 326.929V327.236C562.975 328.389 562.809 329.458 562.477 330.444C562.145 331.421 561.656 332.275 561.012 333.008C560.367 333.73 559.576 334.292 558.639 334.692C557.701 335.093 556.622 335.293 555.401 335.293C554.19 335.293 553.111 335.093 552.164 334.692C551.217 334.292 550.421 333.73 549.776 333.008C549.132 332.275 548.644 331.421 548.312 330.444C547.979 329.458 547.813 328.389 547.813 327.236ZM552.398 326.929V327.236C552.398 327.861 552.447 328.447 552.545 328.994C552.652 329.541 552.823 330.02 553.058 330.43C553.292 330.84 553.6 331.162 553.98 331.396C554.371 331.621 554.845 331.733 555.401 331.733C555.958 331.733 556.427 331.621 556.808 331.396C557.188 331.162 557.496 330.84 557.73 330.43C557.965 330.02 558.131 329.541 558.229 328.994C558.336 328.447 558.39 327.861 558.39 327.236V326.929C558.39 326.313 558.336 325.737 558.229 325.2C558.131 324.653 557.965 324.17 557.73 323.75C557.496 323.33 557.184 323.003 556.793 322.769C556.412 322.534 555.938 322.417 555.372 322.417C554.825 322.417 554.361 322.534 553.98 322.769C553.6 323.003 553.292 323.33 553.058 323.75C552.823 324.17 552.652 324.653 552.545 325.2C552.447 325.737 552.398 326.313 552.398 326.929ZM569.962 322.842V335H565.392V319.15H569.684L569.962 322.842ZM574.693 319.033L574.62 323.296C574.425 323.267 574.171 323.242 573.858 323.223C573.546 323.193 573.277 323.179 573.053 323.179C572.467 323.179 571.959 323.252 571.529 323.398C571.109 323.535 570.758 323.74 570.475 324.014C570.201 324.287 569.996 324.629 569.859 325.039C569.723 325.439 569.654 325.903 569.654 326.431L568.79 326.006C568.79 324.961 568.893 324.004 569.098 323.135C569.303 322.266 569.601 321.514 569.991 320.879C570.382 320.234 570.86 319.736 571.427 319.385C571.993 319.033 572.638 318.857 573.36 318.857C573.595 318.857 573.834 318.872 574.078 318.901C574.322 318.931 574.527 318.975 574.693 319.033ZM585.357 319.15V322.358H575.953V319.15H585.357ZM578.106 315.225H582.691V330.034C582.691 330.474 582.745 330.811 582.853 331.045C582.96 331.279 583.136 331.445 583.38 331.543C583.624 331.631 583.937 331.675 584.317 331.675C584.591 331.675 584.825 331.665 585.021 331.646C585.216 331.626 585.396 331.602 585.562 331.572V334.883C585.172 335.01 584.757 335.107 584.317 335.176C583.878 335.254 583.399 335.293 582.882 335.293C581.896 335.293 581.041 335.132 580.318 334.81C579.605 334.487 579.059 333.979 578.678 333.286C578.297 332.583 578.106 331.67 578.106 330.547V315.225Z" fill="#03517A"/>
<path d="M242.297 385.449L236.648 401H234.34L240.844 383.938H242.332L242.297 385.449ZM247.031 401L241.371 385.449L241.336 383.938H242.824L249.352 401H247.031ZM246.738 394.684V396.535H237.152V394.684H246.738ZM253.477 390.758V405.875H251.297V388.32H253.289L253.477 390.758ZM262.02 394.555V394.801C262.02 395.723 261.91 396.578 261.691 397.367C261.473 398.148 261.152 398.828 260.73 399.406C260.316 399.984 259.805 400.434 259.195 400.754C258.586 401.074 257.887 401.234 257.098 401.234C256.293 401.234 255.582 401.102 254.965 400.836C254.348 400.57 253.824 400.184 253.395 399.676C252.965 399.168 252.621 398.559 252.363 397.848C252.113 397.137 251.941 396.336 251.848 395.445V394.133C251.941 393.195 252.117 392.355 252.375 391.613C252.633 390.871 252.973 390.238 253.395 389.715C253.824 389.184 254.344 388.781 254.953 388.508C255.562 388.227 256.266 388.086 257.062 388.086C257.859 388.086 258.566 388.242 259.184 388.555C259.801 388.859 260.32 389.297 260.742 389.867C261.164 390.438 261.48 391.121 261.691 391.918C261.91 392.707 262.02 393.586 262.02 394.555ZM259.84 394.801V394.555C259.84 393.922 259.773 393.328 259.641 392.773C259.508 392.211 259.301 391.719 259.02 391.297C258.746 390.867 258.395 390.531 257.965 390.289C257.535 390.039 257.023 389.914 256.43 389.914C255.883 389.914 255.406 390.008 255 390.195C254.602 390.383 254.262 390.637 253.98 390.957C253.699 391.27 253.469 391.629 253.289 392.035C253.117 392.434 252.988 392.848 252.902 393.277V396.312C253.059 396.859 253.277 397.375 253.559 397.859C253.84 398.336 254.215 398.723 254.684 399.02C255.152 399.309 255.742 399.453 256.453 399.453C257.039 399.453 257.543 399.332 257.965 399.09C258.395 398.84 258.746 398.5 259.02 398.07C259.301 397.641 259.508 397.148 259.641 396.594C259.773 396.031 259.84 395.434 259.84 394.801ZM266.953 390.312V401H264.785V388.32H266.895L266.953 390.312ZM270.914 388.25L270.902 390.266C270.723 390.227 270.551 390.203 270.387 390.195C270.23 390.18 270.051 390.172 269.848 390.172C269.348 390.172 268.906 390.25 268.523 390.406C268.141 390.562 267.816 390.781 267.551 391.062C267.285 391.344 267.074 391.68 266.918 392.07C266.77 392.453 266.672 392.875 266.625 393.336L266.016 393.688C266.016 392.922 266.09 392.203 266.238 391.531C266.395 390.859 266.633 390.266 266.953 389.75C267.273 389.227 267.68 388.82 268.172 388.531C268.672 388.234 269.266 388.086 269.953 388.086C270.109 388.086 270.289 388.105 270.492 388.145C270.695 388.176 270.836 388.211 270.914 388.25ZM275.273 388.32V401H273.094V388.32H275.273ZM272.93 384.957C272.93 384.605 273.035 384.309 273.246 384.066C273.465 383.824 273.785 383.703 274.207 383.703C274.621 383.703 274.938 383.824 275.156 384.066C275.383 384.309 275.496 384.605 275.496 384.957C275.496 385.293 275.383 385.582 275.156 385.824C274.938 386.059 274.621 386.176 274.207 386.176C273.785 386.176 273.465 386.059 273.246 385.824C273.035 385.582 272.93 385.293 272.93 384.957ZM281.109 383V401H278.93V383H281.109ZM297.434 383.844V401H295.266V386.551L290.895 388.145V386.188L297.094 383.844H297.434ZM321.984 391.59V393.371H310.242V391.59H321.984ZM334.629 391.402H336.176C336.934 391.402 337.559 391.277 338.051 391.027C338.551 390.77 338.922 390.422 339.164 389.984C339.414 389.539 339.539 389.039 339.539 388.484C339.539 387.828 339.43 387.277 339.211 386.832C338.992 386.387 338.664 386.051 338.227 385.824C337.789 385.598 337.234 385.484 336.562 385.484C335.953 385.484 335.414 385.605 334.945 385.848C334.484 386.082 334.121 386.418 333.855 386.855C333.598 387.293 333.469 387.809 333.469 388.402H331.301C331.301 387.535 331.52 386.746 331.957 386.035C332.395 385.324 333.008 384.758 333.797 384.336C334.594 383.914 335.516 383.703 336.562 383.703C337.594 383.703 338.496 383.887 339.27 384.254C340.043 384.613 340.645 385.152 341.074 385.871C341.504 386.582 341.719 387.469 341.719 388.531C341.719 388.961 341.617 389.422 341.414 389.914C341.219 390.398 340.91 390.852 340.488 391.273C340.074 391.695 339.535 392.043 338.871 392.316C338.207 392.582 337.41 392.715 336.48 392.715H334.629V391.402ZM334.629 393.184V391.883H336.48C337.566 391.883 338.465 392.012 339.176 392.27C339.887 392.527 340.445 392.871 340.852 393.301C341.266 393.73 341.555 394.203 341.719 394.719C341.891 395.227 341.977 395.734 341.977 396.242C341.977 397.039 341.84 397.746 341.566 398.363C341.301 398.98 340.922 399.504 340.43 399.934C339.945 400.363 339.375 400.688 338.719 400.906C338.062 401.125 337.348 401.234 336.574 401.234C335.832 401.234 335.133 401.129 334.477 400.918C333.828 400.707 333.254 400.402 332.754 400.004C332.254 399.598 331.863 399.102 331.582 398.516C331.301 397.922 331.16 397.246 331.16 396.488H333.328C333.328 397.082 333.457 397.602 333.715 398.047C333.98 398.492 334.355 398.84 334.84 399.09C335.332 399.332 335.91 399.453 336.574 399.453C337.238 399.453 337.809 399.34 338.285 399.113C338.77 398.879 339.141 398.527 339.398 398.059C339.664 397.59 339.797 397 339.797 396.289C339.797 395.578 339.648 394.996 339.352 394.543C339.055 394.082 338.633 393.742 338.086 393.523C337.547 393.297 336.91 393.184 336.176 393.184H334.629ZM355.676 391.109V393.711C355.676 395.109 355.551 396.289 355.301 397.25C355.051 398.211 354.691 398.984 354.223 399.57C353.754 400.156 353.188 400.582 352.523 400.848C351.867 401.105 351.125 401.234 350.297 401.234C349.641 401.234 349.035 401.152 348.48 400.988C347.926 400.824 347.426 400.562 346.98 400.203C346.543 399.836 346.168 399.359 345.855 398.773C345.543 398.188 345.305 397.477 345.141 396.641C344.977 395.805 344.895 394.828 344.895 393.711V391.109C344.895 389.711 345.02 388.539 345.27 387.594C345.527 386.648 345.891 385.891 346.359 385.32C346.828 384.742 347.391 384.328 348.047 384.078C348.711 383.828 349.453 383.703 350.273 383.703C350.938 383.703 351.547 383.785 352.102 383.949C352.664 384.105 353.164 384.359 353.602 384.711C354.039 385.055 354.41 385.516 354.715 386.094C355.027 386.664 355.266 387.363 355.43 388.191C355.594 389.02 355.676 389.992 355.676 391.109ZM353.496 394.062V390.746C353.496 389.98 353.449 389.309 353.355 388.73C353.27 388.145 353.141 387.645 352.969 387.23C352.797 386.816 352.578 386.48 352.312 386.223C352.055 385.965 351.754 385.777 351.41 385.66C351.074 385.535 350.695 385.473 350.273 385.473C349.758 385.473 349.301 385.57 348.902 385.766C348.504 385.953 348.168 386.254 347.895 386.668C347.629 387.082 347.426 387.625 347.285 388.297C347.145 388.969 347.074 389.785 347.074 390.746V394.062C347.074 394.828 347.117 395.504 347.203 396.09C347.297 396.676 347.434 397.184 347.613 397.613C347.793 398.035 348.012 398.383 348.27 398.656C348.527 398.93 348.824 399.133 349.16 399.266C349.504 399.391 349.883 399.453 350.297 399.453C350.828 399.453 351.293 399.352 351.691 399.148C352.09 398.945 352.422 398.629 352.688 398.199C352.961 397.762 353.164 397.203 353.297 396.523C353.43 395.836 353.496 395.016 353.496 394.062ZM360.668 398.422V400.168C360.668 400.879 360.488 401.629 360.129 402.418C359.77 403.215 359.266 403.879 358.617 404.41L357.387 403.555C357.637 403.211 357.848 402.859 358.02 402.5C358.191 402.148 358.32 401.781 358.406 401.398C358.5 401.023 358.547 400.625 358.547 400.203V398.422H360.668ZM380.332 399.219V401H369.164V399.441L374.754 393.219C375.441 392.453 375.973 391.805 376.348 391.273C376.73 390.734 376.996 390.254 377.145 389.832C377.301 389.402 377.379 388.965 377.379 388.52C377.379 387.957 377.262 387.449 377.027 386.996C376.801 386.535 376.465 386.168 376.02 385.895C375.574 385.621 375.035 385.484 374.402 385.484C373.645 385.484 373.012 385.633 372.504 385.93C372.004 386.219 371.629 386.625 371.379 387.148C371.129 387.672 371.004 388.273 371.004 388.953H368.836C368.836 387.992 369.047 387.113 369.469 386.316C369.891 385.52 370.516 384.887 371.344 384.418C372.172 383.941 373.191 383.703 374.402 383.703C375.48 383.703 376.402 383.895 377.168 384.277C377.934 384.652 378.52 385.184 378.926 385.871C379.34 386.551 379.547 387.348 379.547 388.262C379.547 388.762 379.461 389.27 379.289 389.785C379.125 390.293 378.895 390.801 378.598 391.309C378.309 391.816 377.969 392.316 377.578 392.809C377.195 393.301 376.785 393.785 376.348 394.262L371.777 399.219H380.332ZM393.363 391.109V393.711C393.363 395.109 393.238 396.289 392.988 397.25C392.738 398.211 392.379 398.984 391.91 399.57C391.441 400.156 390.875 400.582 390.211 400.848C389.555 401.105 388.812 401.234 387.984 401.234C387.328 401.234 386.723 401.152 386.168 400.988C385.613 400.824 385.113 400.562 384.668 400.203C384.23 399.836 383.855 399.359 383.543 398.773C383.23 398.188 382.992 397.477 382.828 396.641C382.664 395.805 382.582 394.828 382.582 393.711V391.109C382.582 389.711 382.707 388.539 382.957 387.594C383.215 386.648 383.578 385.891 384.047 385.32C384.516 384.742 385.078 384.328 385.734 384.078C386.398 383.828 387.141 383.703 387.961 383.703C388.625 383.703 389.234 383.785 389.789 383.949C390.352 384.105 390.852 384.359 391.289 384.711C391.727 385.055 392.098 385.516 392.402 386.094C392.715 386.664 392.953 387.363 393.117 388.191C393.281 389.02 393.363 389.992 393.363 391.109ZM391.184 394.062V390.746C391.184 389.98 391.137 389.309 391.043 388.73C390.957 388.145 390.828 387.645 390.656 387.23C390.484 386.816 390.266 386.48 390 386.223C389.742 385.965 389.441 385.777 389.098 385.66C388.762 385.535 388.383 385.473 387.961 385.473C387.445 385.473 386.988 385.57 386.59 385.766C386.191 385.953 385.855 386.254 385.582 386.668C385.316 387.082 385.113 387.625 384.973 388.297C384.832 388.969 384.762 389.785 384.762 390.746V394.062C384.762 394.828 384.805 395.504 384.891 396.09C384.984 396.676 385.121 397.184 385.301 397.613C385.48 398.035 385.699 398.383 385.957 398.656C386.215 398.93 386.512 399.133 386.848 399.266C387.191 399.391 387.57 399.453 387.984 399.453C388.516 399.453 388.98 399.352 389.379 399.148C389.777 398.945 390.109 398.629 390.375 398.199C390.648 397.762 390.852 397.203 390.984 396.523C391.117 395.836 391.184 395.016 391.184 394.062ZM407.332 399.219V401H396.164V399.441L401.754 393.219C402.441 392.453 402.973 391.805 403.348 391.273C403.73 390.734 403.996 390.254 404.145 389.832C404.301 389.402 404.379 388.965 404.379 388.52C404.379 387.957 404.262 387.449 404.027 386.996C403.801 386.535 403.465 386.168 403.02 385.895C402.574 385.621 402.035 385.484 401.402 385.484C400.645 385.484 400.012 385.633 399.504 385.93C399.004 386.219 398.629 386.625 398.379 387.148C398.129 387.672 398.004 388.273 398.004 388.953H395.836C395.836 387.992 396.047 387.113 396.469 386.316C396.891 385.52 397.516 384.887 398.344 384.418C399.172 383.941 400.191 383.703 401.402 383.703C402.48 383.703 403.402 383.895 404.168 384.277C404.934 384.652 405.52 385.184 405.926 385.871C406.34 386.551 406.547 387.348 406.547 388.262C406.547 388.762 406.461 389.27 406.289 389.785C406.125 390.293 405.895 390.801 405.598 391.309C405.309 391.816 404.969 392.316 404.578 392.809C404.195 393.301 403.785 393.785 403.348 394.262L398.777 399.219H407.332ZM420.832 399.219V401H409.664V399.441L415.254 393.219C415.941 392.453 416.473 391.805 416.848 391.273C417.23 390.734 417.496 390.254 417.645 389.832C417.801 389.402 417.879 388.965 417.879 388.52C417.879 387.957 417.762 387.449 417.527 386.996C417.301 386.535 416.965 386.168 416.52 385.895C416.074 385.621 415.535 385.484 414.902 385.484C414.145 385.484 413.512 385.633 413.004 385.93C412.504 386.219 412.129 386.625 411.879 387.148C411.629 387.672 411.504 388.273 411.504 388.953H409.336C409.336 387.992 409.547 387.113 409.969 386.316C410.391 385.52 411.016 384.887 411.844 384.418C412.672 383.941 413.691 383.703 414.902 383.703C415.98 383.703 416.902 383.895 417.668 384.277C418.434 384.652 419.02 385.184 419.426 385.871C419.84 386.551 420.047 387.348 420.047 388.262C420.047 388.762 419.961 389.27 419.789 389.785C419.625 390.293 419.395 390.801 419.098 391.309C418.809 391.816 418.469 392.316 418.078 392.809C417.695 393.301 417.285 393.785 416.848 394.262L412.277 399.219H420.832Z" fill="#03517A"/>
<path d="M239.498 514H236.529L236.549 512.467H239.498C240.514 512.467 241.36 512.255 242.037 511.832C242.714 511.402 243.222 510.803 243.561 510.035C243.906 509.26 244.078 508.355 244.078 507.32V506.451C244.078 505.637 243.98 504.915 243.785 504.283C243.59 503.645 243.303 503.108 242.926 502.672C242.548 502.229 242.086 501.894 241.539 501.666C240.999 501.438 240.377 501.324 239.674 501.324H236.471V499.781H239.674C240.605 499.781 241.454 499.938 242.223 500.25C242.991 500.556 243.652 501.002 244.205 501.588C244.765 502.167 245.195 502.87 245.494 503.697C245.794 504.518 245.943 505.442 245.943 506.471V507.32C245.943 508.349 245.794 509.277 245.494 510.104C245.195 510.924 244.762 511.624 244.195 512.203C243.635 512.783 242.958 513.229 242.164 513.541C241.376 513.847 240.488 514 239.498 514ZM237.535 499.781V514H235.65V499.781H237.535ZM248.023 508.834V508.609C248.023 507.848 248.134 507.141 248.355 506.49C248.577 505.833 248.896 505.263 249.312 504.781C249.729 504.293 250.234 503.915 250.826 503.648C251.419 503.375 252.083 503.238 252.818 503.238C253.561 503.238 254.228 503.375 254.82 503.648C255.419 503.915 255.927 504.293 256.344 504.781C256.767 505.263 257.089 505.833 257.311 506.49C257.532 507.141 257.643 507.848 257.643 508.609V508.834C257.643 509.596 257.532 510.302 257.311 510.953C257.089 511.604 256.767 512.174 256.344 512.662C255.927 513.144 255.423 513.521 254.83 513.795C254.244 514.062 253.58 514.195 252.838 514.195C252.096 514.195 251.428 514.062 250.836 513.795C250.243 513.521 249.736 513.144 249.312 512.662C248.896 512.174 248.577 511.604 248.355 510.953C248.134 510.302 248.023 509.596 248.023 508.834ZM249.83 508.609V508.834C249.83 509.361 249.892 509.859 250.016 510.328C250.139 510.79 250.325 511.201 250.572 511.559C250.826 511.917 251.142 512.2 251.52 512.408C251.897 512.61 252.337 512.711 252.838 512.711C253.333 512.711 253.766 512.61 254.137 512.408C254.514 512.2 254.827 511.917 255.074 511.559C255.322 511.201 255.507 510.79 255.631 510.328C255.761 509.859 255.826 509.361 255.826 508.834V508.609C255.826 508.089 255.761 507.597 255.631 507.135C255.507 506.666 255.318 506.253 255.064 505.895C254.817 505.53 254.505 505.243 254.127 505.035C253.756 504.827 253.32 504.723 252.818 504.723C252.324 504.723 251.887 504.827 251.51 505.035C251.139 505.243 250.826 505.53 250.572 505.895C250.325 506.253 250.139 506.666 250.016 507.135C249.892 507.597 249.83 508.089 249.83 508.609ZM266.373 511.559V503.434H268.189V514H266.461L266.373 511.559ZM266.715 509.332L267.467 509.312C267.467 510.016 267.392 510.667 267.242 511.266C267.099 511.858 266.865 512.372 266.539 512.809C266.214 513.245 265.787 513.587 265.26 513.834C264.732 514.075 264.091 514.195 263.336 514.195C262.822 514.195 262.35 514.12 261.92 513.971C261.497 513.821 261.132 513.59 260.826 513.277C260.52 512.965 260.283 512.558 260.113 512.057C259.951 511.555 259.869 510.953 259.869 510.25V503.434H261.676V510.27C261.676 510.745 261.728 511.139 261.832 511.451C261.943 511.757 262.089 512.001 262.271 512.184C262.46 512.359 262.669 512.483 262.896 512.555C263.131 512.626 263.372 512.662 263.619 512.662C264.387 512.662 264.996 512.516 265.445 512.223C265.895 511.923 266.217 511.523 266.412 511.021C266.614 510.514 266.715 509.951 266.715 509.332ZM277.789 503.434H279.43V513.775C279.43 514.706 279.241 515.501 278.863 516.158C278.486 516.816 277.958 517.314 277.281 517.652C276.611 517.997 275.836 518.17 274.957 518.17C274.592 518.17 274.163 518.111 273.668 517.994C273.18 517.883 272.698 517.691 272.223 517.418C271.754 517.151 271.36 516.79 271.041 516.334L271.988 515.26C272.431 515.794 272.893 516.165 273.375 516.373C273.863 516.581 274.345 516.686 274.82 516.686C275.393 516.686 275.888 516.578 276.305 516.363C276.721 516.148 277.044 515.829 277.271 515.406C277.506 514.99 277.623 514.475 277.623 513.863V505.758L277.789 503.434ZM270.514 508.834V508.629C270.514 507.822 270.608 507.089 270.797 506.432C270.992 505.768 271.269 505.198 271.627 504.723C271.992 504.247 272.431 503.883 272.945 503.629C273.46 503.368 274.039 503.238 274.684 503.238C275.348 503.238 275.927 503.355 276.422 503.59C276.923 503.818 277.346 504.153 277.691 504.596C278.043 505.032 278.32 505.559 278.521 506.178C278.723 506.796 278.863 507.496 278.941 508.277V509.176C278.87 509.951 278.73 510.647 278.521 511.266C278.32 511.884 278.043 512.411 277.691 512.848C277.346 513.284 276.923 513.619 276.422 513.854C275.921 514.081 275.335 514.195 274.664 514.195C274.033 514.195 273.46 514.062 272.945 513.795C272.438 513.528 272.001 513.154 271.637 512.672C271.272 512.19 270.992 511.624 270.797 510.973C270.608 510.315 270.514 509.602 270.514 508.834ZM272.32 508.629V508.834C272.32 509.361 272.372 509.856 272.477 510.318C272.587 510.781 272.753 511.188 272.975 511.539C273.202 511.891 273.492 512.167 273.844 512.369C274.195 512.564 274.615 512.662 275.104 512.662C275.702 512.662 276.197 512.535 276.588 512.281C276.979 512.027 277.288 511.692 277.516 511.275C277.75 510.859 277.932 510.406 278.062 509.918V507.564C277.991 507.206 277.88 506.861 277.73 506.529C277.587 506.191 277.398 505.891 277.164 505.631C276.936 505.364 276.653 505.152 276.314 504.996C275.976 504.84 275.579 504.762 275.123 504.762C274.628 504.762 274.202 504.866 273.844 505.074C273.492 505.276 273.202 505.556 272.975 505.914C272.753 506.266 272.587 506.676 272.477 507.145C272.372 507.607 272.32 508.102 272.32 508.629ZM284 499V500.25C284 500.641 283.932 501.054 283.795 501.49C283.665 501.92 283.473 502.337 283.219 502.74C282.965 503.137 282.659 503.486 282.301 503.785L281.266 503.072C281.572 502.643 281.803 502.203 281.959 501.754C282.122 501.298 282.203 500.807 282.203 500.279V499H284ZM291.236 511.197C291.236 510.937 291.178 510.696 291.061 510.475C290.95 510.247 290.719 510.042 290.367 509.859C290.022 509.671 289.501 509.508 288.805 509.371C288.219 509.247 287.688 509.101 287.213 508.932C286.744 508.762 286.344 508.557 286.012 508.316C285.686 508.076 285.436 507.792 285.26 507.467C285.084 507.141 284.996 506.76 284.996 506.324C284.996 505.908 285.087 505.514 285.27 505.143C285.458 504.771 285.722 504.443 286.061 504.156C286.406 503.87 286.819 503.645 287.301 503.482C287.783 503.32 288.32 503.238 288.912 503.238C289.758 503.238 290.481 503.388 291.08 503.688C291.679 503.987 292.138 504.387 292.457 504.889C292.776 505.383 292.936 505.934 292.936 506.539H291.129C291.129 506.246 291.041 505.963 290.865 505.689C290.696 505.41 290.445 505.178 290.113 504.996C289.788 504.814 289.387 504.723 288.912 504.723C288.411 504.723 288.004 504.801 287.691 504.957C287.385 505.107 287.161 505.299 287.018 505.533C286.881 505.768 286.812 506.015 286.812 506.275C286.812 506.471 286.845 506.646 286.91 506.803C286.982 506.952 287.105 507.092 287.281 507.223C287.457 507.346 287.704 507.464 288.023 507.574C288.342 507.685 288.749 507.796 289.244 507.906C290.11 508.102 290.823 508.336 291.383 508.609C291.943 508.883 292.359 509.218 292.633 509.615C292.906 510.012 293.043 510.494 293.043 511.061C293.043 511.523 292.945 511.946 292.75 512.33C292.561 512.714 292.285 513.046 291.92 513.326C291.562 513.6 291.132 513.814 290.631 513.971C290.136 514.12 289.579 514.195 288.961 514.195C288.03 514.195 287.242 514.029 286.598 513.697C285.953 513.365 285.465 512.936 285.133 512.408C284.801 511.881 284.635 511.324 284.635 510.738H286.451C286.477 511.233 286.62 511.627 286.881 511.92C287.141 512.206 287.46 512.411 287.838 512.535C288.215 512.652 288.59 512.711 288.961 512.711C289.456 512.711 289.869 512.646 290.201 512.516C290.54 512.385 290.797 512.206 290.973 511.979C291.148 511.751 291.236 511.49 291.236 511.197ZM311.158 506.92V512.125C310.982 512.385 310.702 512.678 310.318 513.004C309.934 513.323 309.404 513.603 308.727 513.844C308.056 514.078 307.19 514.195 306.129 514.195C305.263 514.195 304.465 514.046 303.736 513.746C303.014 513.44 302.385 512.997 301.852 512.418C301.324 511.832 300.914 511.122 300.621 510.289C300.335 509.449 300.191 508.499 300.191 507.438V506.334C300.191 505.273 300.315 504.326 300.562 503.492C300.816 502.659 301.188 501.952 301.676 501.373C302.164 500.787 302.763 500.344 303.473 500.045C304.182 499.739 304.996 499.586 305.914 499.586C307.001 499.586 307.91 499.775 308.639 500.152C309.374 500.523 309.947 501.038 310.357 501.695C310.774 502.353 311.041 503.102 311.158 503.941H309.273C309.189 503.427 309.02 502.958 308.766 502.535C308.518 502.112 308.163 501.773 307.701 501.52C307.239 501.259 306.643 501.129 305.914 501.129C305.257 501.129 304.687 501.249 304.205 501.49C303.723 501.731 303.326 502.076 303.014 502.525C302.701 502.975 302.467 503.518 302.311 504.156C302.161 504.794 302.086 505.514 302.086 506.314V507.438C302.086 508.258 302.18 508.99 302.369 509.635C302.564 510.279 302.841 510.829 303.199 511.285C303.557 511.734 303.984 512.076 304.479 512.311C304.98 512.545 305.533 512.662 306.139 512.662C306.809 512.662 307.353 512.607 307.77 512.496C308.186 512.379 308.512 512.242 308.746 512.086C308.98 511.923 309.16 511.77 309.283 511.627V508.443H305.992V506.92H311.158ZM313.531 508.834V508.609C313.531 507.848 313.642 507.141 313.863 506.49C314.085 505.833 314.404 505.263 314.82 504.781C315.237 504.293 315.742 503.915 316.334 503.648C316.926 503.375 317.59 503.238 318.326 503.238C319.068 503.238 319.736 503.375 320.328 503.648C320.927 503.915 321.435 504.293 321.852 504.781C322.275 505.263 322.597 505.833 322.818 506.49C323.04 507.141 323.15 507.848 323.15 508.609V508.834C323.15 509.596 323.04 510.302 322.818 510.953C322.597 511.604 322.275 512.174 321.852 512.662C321.435 513.144 320.93 513.521 320.338 513.795C319.752 514.062 319.088 514.195 318.346 514.195C317.604 514.195 316.936 514.062 316.344 513.795C315.751 513.521 315.243 513.144 314.82 512.662C314.404 512.174 314.085 511.604 313.863 510.953C313.642 510.302 313.531 509.596 313.531 508.834ZM315.338 508.609V508.834C315.338 509.361 315.4 509.859 315.523 510.328C315.647 510.79 315.833 511.201 316.08 511.559C316.334 511.917 316.65 512.2 317.027 512.408C317.405 512.61 317.844 512.711 318.346 512.711C318.84 512.711 319.273 512.61 319.645 512.408C320.022 512.2 320.335 511.917 320.582 511.559C320.829 511.201 321.015 510.79 321.139 510.328C321.269 509.859 321.334 509.361 321.334 508.834V508.609C321.334 508.089 321.269 507.597 321.139 507.135C321.015 506.666 320.826 506.253 320.572 505.895C320.325 505.53 320.012 505.243 319.635 505.035C319.264 504.827 318.827 504.723 318.326 504.723C317.831 504.723 317.395 504.827 317.018 505.035C316.646 505.243 316.334 505.53 316.08 505.895C315.833 506.253 315.647 506.666 315.523 507.135C315.4 507.597 315.338 508.089 315.338 508.609ZM327.379 499V514H325.562V499H327.379ZM332.975 514H331.168V502.32C331.168 501.559 331.305 500.917 331.578 500.396C331.858 499.869 332.258 499.472 332.779 499.205C333.3 498.932 333.919 498.795 334.635 498.795C334.843 498.795 335.051 498.808 335.26 498.834C335.475 498.86 335.683 498.899 335.885 498.951L335.787 500.426C335.65 500.393 335.494 500.37 335.318 500.357C335.149 500.344 334.98 500.338 334.811 500.338C334.426 500.338 334.094 500.416 333.814 500.572C333.541 500.722 333.333 500.943 333.189 501.236C333.046 501.529 332.975 501.891 332.975 502.32V514ZM335.221 503.434V504.82H329.498V503.434H335.221ZM350.045 510.406C350.045 510.074 349.993 509.781 349.889 509.527C349.791 509.267 349.615 509.033 349.361 508.824C349.114 508.616 348.769 508.417 348.326 508.229C347.89 508.04 347.337 507.848 346.666 507.652C345.963 507.444 345.328 507.213 344.762 506.959C344.195 506.699 343.71 506.402 343.307 506.07C342.903 505.738 342.594 505.357 342.379 504.928C342.164 504.498 342.057 504.007 342.057 503.453C342.057 502.9 342.171 502.389 342.398 501.92C342.626 501.451 342.952 501.044 343.375 500.699C343.805 500.348 344.316 500.074 344.908 499.879C345.501 499.684 346.161 499.586 346.891 499.586C347.958 499.586 348.863 499.791 349.605 500.201C350.354 500.605 350.924 501.135 351.314 501.793C351.705 502.444 351.9 503.141 351.9 503.883H350.025C350.025 503.349 349.911 502.877 349.684 502.467C349.456 502.05 349.111 501.725 348.648 501.49C348.186 501.249 347.6 501.129 346.891 501.129C346.22 501.129 345.667 501.23 345.23 501.432C344.794 501.633 344.469 501.907 344.254 502.252C344.046 502.597 343.941 502.991 343.941 503.434C343.941 503.733 344.003 504.007 344.127 504.254C344.257 504.495 344.456 504.719 344.723 504.928C344.996 505.136 345.341 505.328 345.758 505.504C346.181 505.68 346.686 505.849 347.271 506.012C348.079 506.24 348.775 506.493 349.361 506.773C349.947 507.053 350.429 507.369 350.807 507.721C351.191 508.066 351.474 508.46 351.656 508.902C351.845 509.339 351.939 509.833 351.939 510.387C351.939 510.966 351.822 511.49 351.588 511.959C351.354 512.428 351.018 512.828 350.582 513.16C350.146 513.492 349.622 513.749 349.01 513.932C348.404 514.107 347.727 514.195 346.979 514.195C346.321 514.195 345.673 514.104 345.035 513.922C344.404 513.74 343.827 513.466 343.307 513.102C342.792 512.737 342.379 512.288 342.066 511.754C341.76 511.214 341.607 510.589 341.607 509.879H343.482C343.482 510.367 343.577 510.787 343.766 511.139C343.954 511.484 344.212 511.77 344.537 511.998C344.869 512.226 345.243 512.395 345.66 512.506C346.083 512.61 346.523 512.662 346.979 512.662C347.636 512.662 348.193 512.571 348.648 512.389C349.104 512.206 349.449 511.946 349.684 511.607C349.924 511.269 350.045 510.868 350.045 510.406ZM360.533 511.559V503.434H362.35V514H360.621L360.533 511.559ZM360.875 509.332L361.627 509.312C361.627 510.016 361.552 510.667 361.402 511.266C361.259 511.858 361.025 512.372 360.699 512.809C360.374 513.245 359.947 513.587 359.42 513.834C358.893 514.075 358.251 514.195 357.496 514.195C356.982 514.195 356.51 514.12 356.08 513.971C355.657 513.821 355.292 513.59 354.986 513.277C354.68 512.965 354.443 512.558 354.273 512.057C354.111 511.555 354.029 510.953 354.029 510.25V503.434H355.836V510.27C355.836 510.745 355.888 511.139 355.992 511.451C356.103 511.757 356.249 512.001 356.432 512.184C356.62 512.359 356.829 512.483 357.057 512.555C357.291 512.626 357.532 512.662 357.779 512.662C358.548 512.662 359.156 512.516 359.605 512.223C360.055 511.923 360.377 511.523 360.572 511.021C360.774 510.514 360.875 509.951 360.875 509.332ZM366.91 505.465V518.062H365.094V503.434H366.754L366.91 505.465ZM374.029 508.629V508.834C374.029 509.602 373.938 510.315 373.756 510.973C373.574 511.624 373.307 512.19 372.955 512.672C372.61 513.154 372.184 513.528 371.676 513.795C371.168 514.062 370.585 514.195 369.928 514.195C369.257 514.195 368.665 514.085 368.15 513.863C367.636 513.642 367.2 513.32 366.842 512.896C366.484 512.473 366.197 511.965 365.982 511.373C365.774 510.781 365.631 510.113 365.553 509.371V508.277C365.631 507.496 365.777 506.796 365.992 506.178C366.207 505.559 366.49 505.032 366.842 504.596C367.2 504.153 367.633 503.818 368.141 503.59C368.648 503.355 369.234 503.238 369.898 503.238C370.562 503.238 371.152 503.368 371.666 503.629C372.18 503.883 372.613 504.247 372.965 504.723C373.316 505.198 373.58 505.768 373.756 506.432C373.938 507.089 374.029 507.822 374.029 508.629ZM372.213 508.834V508.629C372.213 508.102 372.158 507.607 372.047 507.145C371.936 506.676 371.764 506.266 371.529 505.914C371.301 505.556 371.008 505.276 370.65 505.074C370.292 504.866 369.866 504.762 369.371 504.762C368.915 504.762 368.518 504.84 368.18 504.996C367.848 505.152 367.564 505.364 367.33 505.631C367.096 505.891 366.904 506.191 366.754 506.529C366.611 506.861 366.503 507.206 366.432 507.564V510.094C366.562 510.549 366.744 510.979 366.979 511.383C367.213 511.78 367.525 512.102 367.916 512.35C368.307 512.59 368.798 512.711 369.391 512.711C369.879 512.711 370.299 512.61 370.65 512.408C371.008 512.2 371.301 511.917 371.529 511.559C371.764 511.201 371.936 510.79 372.047 510.328C372.158 509.859 372.213 509.361 372.213 508.834ZM378.141 505.465V518.062H376.324V503.434H377.984L378.141 505.465ZM385.26 508.629V508.834C385.26 509.602 385.169 510.315 384.986 510.973C384.804 511.624 384.537 512.19 384.186 512.672C383.84 513.154 383.414 513.528 382.906 513.795C382.398 514.062 381.816 514.195 381.158 514.195C380.488 514.195 379.895 514.085 379.381 513.863C378.867 513.642 378.43 513.32 378.072 512.896C377.714 512.473 377.428 511.965 377.213 511.373C377.005 510.781 376.861 510.113 376.783 509.371V508.277C376.861 507.496 377.008 506.796 377.223 506.178C377.438 505.559 377.721 505.032 378.072 504.596C378.43 504.153 378.863 503.818 379.371 503.59C379.879 503.355 380.465 503.238 381.129 503.238C381.793 503.238 382.382 503.368 382.896 503.629C383.411 503.883 383.844 504.247 384.195 504.723C384.547 505.198 384.811 505.768 384.986 506.432C385.169 507.089 385.26 507.822 385.26 508.629ZM383.443 508.834V508.629C383.443 508.102 383.388 507.607 383.277 507.145C383.167 506.676 382.994 506.266 382.76 505.914C382.532 505.556 382.239 505.276 381.881 505.074C381.523 504.866 381.096 504.762 380.602 504.762C380.146 504.762 379.749 504.84 379.41 504.996C379.078 505.152 378.795 505.364 378.561 505.631C378.326 505.891 378.134 506.191 377.984 506.529C377.841 506.861 377.734 507.206 377.662 507.564V510.094C377.792 510.549 377.975 510.979 378.209 511.383C378.443 511.78 378.756 512.102 379.146 512.35C379.537 512.59 380.029 512.711 380.621 512.711C381.109 512.711 381.529 512.61 381.881 512.408C382.239 512.2 382.532 511.917 382.76 511.559C382.994 511.201 383.167 510.79 383.277 510.328C383.388 509.859 383.443 509.361 383.443 508.834ZM389.527 499V514H387.711V499H389.527ZM395.396 512.906L398.336 503.434H400.27L396.031 515.631C395.934 515.891 395.803 516.171 395.641 516.471C395.484 516.777 395.283 517.066 395.035 517.34C394.788 517.613 394.488 517.835 394.137 518.004C393.792 518.18 393.378 518.268 392.896 518.268C392.753 518.268 392.571 518.248 392.35 518.209C392.128 518.17 391.972 518.137 391.881 518.111L391.871 516.646C391.923 516.653 392.005 516.66 392.115 516.666C392.232 516.679 392.314 516.686 392.359 516.686C392.77 516.686 393.118 516.63 393.404 516.52C393.691 516.415 393.932 516.236 394.127 515.982C394.329 515.735 394.501 515.393 394.645 514.957L395.396 512.906ZM393.238 503.434L395.982 511.637L396.451 513.541L395.152 514.205L391.266 503.434H393.238Z" fill="#03517A"/>
<path d="M235.65 473.781H240.357C241.425 473.781 242.327 473.944 243.062 474.27C243.805 474.595 244.368 475.077 244.752 475.715C245.143 476.346 245.338 477.124 245.338 478.049C245.338 478.7 245.204 479.296 244.938 479.836C244.677 480.37 244.299 480.826 243.805 481.203C243.316 481.574 242.73 481.851 242.047 482.033L241.52 482.238H237.096L237.076 480.705H240.416C241.093 480.705 241.656 480.588 242.105 480.354C242.555 480.113 242.893 479.79 243.121 479.387C243.349 478.983 243.463 478.537 243.463 478.049C243.463 477.502 243.355 477.023 243.141 476.613C242.926 476.203 242.587 475.887 242.125 475.666C241.669 475.438 241.08 475.324 240.357 475.324H237.535V488H235.65V473.781ZM243.961 488L240.504 481.555L242.467 481.545L245.973 487.883V488H243.961ZM252.086 488.195C251.35 488.195 250.683 488.072 250.084 487.824C249.492 487.57 248.98 487.215 248.551 486.76C248.128 486.304 247.802 485.764 247.574 485.139C247.346 484.514 247.232 483.83 247.232 483.088V482.678C247.232 481.818 247.359 481.053 247.613 480.383C247.867 479.706 248.212 479.133 248.648 478.664C249.085 478.195 249.579 477.84 250.133 477.6C250.686 477.359 251.259 477.238 251.852 477.238C252.607 477.238 253.258 477.368 253.805 477.629C254.358 477.889 254.811 478.254 255.162 478.723C255.514 479.185 255.774 479.732 255.943 480.363C256.113 480.988 256.197 481.672 256.197 482.414V483.225H248.307V481.75H254.391V481.613C254.365 481.145 254.267 480.689 254.098 480.246C253.935 479.803 253.674 479.439 253.316 479.152C252.958 478.866 252.47 478.723 251.852 478.723C251.441 478.723 251.064 478.811 250.719 478.986C250.374 479.156 250.077 479.41 249.83 479.748C249.583 480.087 249.391 480.5 249.254 480.988C249.117 481.477 249.049 482.04 249.049 482.678V483.088C249.049 483.589 249.117 484.061 249.254 484.504C249.397 484.94 249.602 485.324 249.869 485.656C250.143 485.988 250.471 486.249 250.855 486.438C251.246 486.626 251.689 486.721 252.184 486.721C252.822 486.721 253.362 486.59 253.805 486.33C254.247 486.07 254.635 485.721 254.967 485.285L256.061 486.154C255.833 486.499 255.543 486.828 255.191 487.141C254.84 487.453 254.407 487.707 253.893 487.902C253.385 488.098 252.783 488.195 252.086 488.195ZM260.113 479.465V492.062H258.297V477.434H259.957L260.113 479.465ZM267.232 482.629V482.834C267.232 483.602 267.141 484.315 266.959 484.973C266.777 485.624 266.51 486.19 266.158 486.672C265.813 487.154 265.387 487.528 264.879 487.795C264.371 488.062 263.788 488.195 263.131 488.195C262.46 488.195 261.868 488.085 261.354 487.863C260.839 487.642 260.403 487.32 260.045 486.896C259.687 486.473 259.4 485.965 259.186 485.373C258.977 484.781 258.834 484.113 258.756 483.371V482.277C258.834 481.496 258.98 480.796 259.195 480.178C259.41 479.559 259.693 479.032 260.045 478.596C260.403 478.153 260.836 477.818 261.344 477.59C261.852 477.355 262.438 477.238 263.102 477.238C263.766 477.238 264.355 477.368 264.869 477.629C265.383 477.883 265.816 478.247 266.168 478.723C266.52 479.198 266.783 479.768 266.959 480.432C267.141 481.089 267.232 481.822 267.232 482.629ZM265.416 482.834V482.629C265.416 482.102 265.361 481.607 265.25 481.145C265.139 480.676 264.967 480.266 264.732 479.914C264.505 479.556 264.212 479.276 263.854 479.074C263.495 478.866 263.069 478.762 262.574 478.762C262.118 478.762 261.721 478.84 261.383 478.996C261.051 479.152 260.768 479.364 260.533 479.631C260.299 479.891 260.107 480.191 259.957 480.529C259.814 480.861 259.706 481.206 259.635 481.564V484.094C259.765 484.549 259.947 484.979 260.182 485.383C260.416 485.78 260.729 486.102 261.119 486.35C261.51 486.59 262.001 486.711 262.594 486.711C263.082 486.711 263.502 486.61 263.854 486.408C264.212 486.2 264.505 485.917 264.732 485.559C264.967 485.201 265.139 484.79 265.25 484.328C265.361 483.859 265.416 483.361 265.416 482.834ZM269.059 482.834V482.609C269.059 481.848 269.169 481.141 269.391 480.49C269.612 479.833 269.931 479.263 270.348 478.781C270.764 478.293 271.269 477.915 271.861 477.648C272.454 477.375 273.118 477.238 273.854 477.238C274.596 477.238 275.263 477.375 275.855 477.648C276.454 477.915 276.962 478.293 277.379 478.781C277.802 479.263 278.124 479.833 278.346 480.49C278.567 481.141 278.678 481.848 278.678 482.609V482.834C278.678 483.596 278.567 484.302 278.346 484.953C278.124 485.604 277.802 486.174 277.379 486.662C276.962 487.144 276.458 487.521 275.865 487.795C275.279 488.062 274.615 488.195 273.873 488.195C273.131 488.195 272.464 488.062 271.871 487.795C271.279 487.521 270.771 487.144 270.348 486.662C269.931 486.174 269.612 485.604 269.391 484.953C269.169 484.302 269.059 483.596 269.059 482.834ZM270.865 482.609V482.834C270.865 483.361 270.927 483.859 271.051 484.328C271.174 484.79 271.36 485.201 271.607 485.559C271.861 485.917 272.177 486.2 272.555 486.408C272.932 486.61 273.372 486.711 273.873 486.711C274.368 486.711 274.801 486.61 275.172 486.408C275.549 486.2 275.862 485.917 276.109 485.559C276.357 485.201 276.542 484.79 276.666 484.328C276.796 483.859 276.861 483.361 276.861 482.834V482.609C276.861 482.089 276.796 481.597 276.666 481.135C276.542 480.666 276.354 480.253 276.1 479.895C275.852 479.53 275.54 479.243 275.162 479.035C274.791 478.827 274.355 478.723 273.854 478.723C273.359 478.723 272.923 478.827 272.545 479.035C272.174 479.243 271.861 479.53 271.607 479.895C271.36 480.253 271.174 480.666 271.051 481.135C270.927 481.597 270.865 482.089 270.865 482.609ZM282.75 479.094V488H280.943V477.434H282.701L282.75 479.094ZM286.051 477.375L286.041 479.055C285.891 479.022 285.748 479.003 285.611 478.996C285.481 478.983 285.331 478.977 285.162 478.977C284.745 478.977 284.378 479.042 284.059 479.172C283.74 479.302 283.469 479.484 283.248 479.719C283.027 479.953 282.851 480.233 282.721 480.559C282.597 480.878 282.516 481.229 282.477 481.613L281.969 481.906C281.969 481.268 282.031 480.669 282.154 480.109C282.285 479.549 282.483 479.055 282.75 478.625C283.017 478.189 283.355 477.85 283.766 477.609C284.182 477.362 284.677 477.238 285.25 477.238C285.38 477.238 285.53 477.255 285.699 477.287C285.868 477.313 285.986 477.342 286.051 477.375ZM292.633 477.434V478.82H286.92V477.434H292.633ZM288.854 474.865H290.66V485.383C290.66 485.741 290.715 486.011 290.826 486.193C290.937 486.376 291.08 486.496 291.256 486.555C291.432 486.613 291.62 486.643 291.822 486.643C291.972 486.643 292.128 486.63 292.291 486.604C292.46 486.571 292.587 486.545 292.672 486.525L292.682 488C292.538 488.046 292.35 488.088 292.115 488.127C291.887 488.173 291.611 488.195 291.285 488.195C290.842 488.195 290.436 488.107 290.064 487.932C289.693 487.756 289.397 487.463 289.176 487.053C288.961 486.636 288.854 486.076 288.854 485.373V474.865ZM303.834 488H300.865L300.885 486.467H303.834C304.85 486.467 305.696 486.255 306.373 485.832C307.05 485.402 307.558 484.803 307.896 484.035C308.242 483.26 308.414 482.355 308.414 481.32V480.451C308.414 479.637 308.316 478.915 308.121 478.283C307.926 477.645 307.639 477.108 307.262 476.672C306.884 476.229 306.422 475.894 305.875 475.666C305.335 475.438 304.713 475.324 304.01 475.324H300.807V473.781H304.01C304.941 473.781 305.79 473.938 306.559 474.25C307.327 474.556 307.988 475.002 308.541 475.588C309.101 476.167 309.531 476.87 309.83 477.697C310.13 478.518 310.279 479.442 310.279 480.471V481.32C310.279 482.349 310.13 483.277 309.83 484.104C309.531 484.924 309.098 485.624 308.531 486.203C307.971 486.783 307.294 487.229 306.5 487.541C305.712 487.847 304.824 488 303.834 488ZM301.871 473.781V488H299.986V473.781H301.871ZM319.068 486.193V480.754C319.068 480.337 318.984 479.976 318.814 479.67C318.652 479.357 318.404 479.117 318.072 478.947C317.74 478.778 317.33 478.693 316.842 478.693C316.386 478.693 315.986 478.771 315.641 478.928C315.302 479.084 315.035 479.289 314.84 479.543C314.651 479.797 314.557 480.07 314.557 480.363H312.75C312.75 479.986 312.848 479.611 313.043 479.24C313.238 478.869 313.518 478.534 313.883 478.234C314.254 477.928 314.697 477.688 315.211 477.512C315.732 477.329 316.311 477.238 316.949 477.238C317.717 477.238 318.395 477.368 318.98 477.629C319.573 477.889 320.035 478.283 320.367 478.811C320.706 479.331 320.875 479.986 320.875 480.773V485.695C320.875 486.047 320.904 486.421 320.963 486.818C321.028 487.215 321.122 487.557 321.246 487.844V488H319.361C319.27 487.792 319.199 487.515 319.146 487.17C319.094 486.818 319.068 486.493 319.068 486.193ZM319.381 481.594L319.4 482.863H317.574C317.06 482.863 316.601 482.906 316.197 482.99C315.794 483.068 315.455 483.189 315.182 483.352C314.908 483.514 314.7 483.719 314.557 483.967C314.413 484.208 314.342 484.491 314.342 484.816C314.342 485.148 314.417 485.451 314.566 485.725C314.716 485.998 314.941 486.216 315.24 486.379C315.546 486.535 315.921 486.613 316.363 486.613C316.917 486.613 317.405 486.496 317.828 486.262C318.251 486.027 318.587 485.741 318.834 485.402C319.088 485.064 319.225 484.735 319.244 484.416L320.016 485.285C319.97 485.559 319.846 485.861 319.645 486.193C319.443 486.525 319.173 486.844 318.834 487.15C318.502 487.45 318.105 487.701 317.643 487.902C317.187 488.098 316.673 488.195 316.1 488.195C315.383 488.195 314.755 488.055 314.215 487.775C313.681 487.495 313.264 487.121 312.965 486.652C312.672 486.177 312.525 485.646 312.525 485.061C312.525 484.494 312.636 483.996 312.857 483.566C313.079 483.13 313.398 482.769 313.814 482.482C314.231 482.189 314.732 481.968 315.318 481.818C315.904 481.669 316.559 481.594 317.281 481.594H319.381ZM328.141 477.434V478.82H322.428V477.434H328.141ZM324.361 474.865H326.168V485.383C326.168 485.741 326.223 486.011 326.334 486.193C326.445 486.376 326.588 486.496 326.764 486.555C326.939 486.613 327.128 486.643 327.33 486.643C327.48 486.643 327.636 486.63 327.799 486.604C327.968 486.571 328.095 486.545 328.18 486.525L328.189 488C328.046 488.046 327.857 488.088 327.623 488.127C327.395 488.173 327.118 488.195 326.793 488.195C326.35 488.195 325.943 488.107 325.572 487.932C325.201 487.756 324.905 487.463 324.684 487.053C324.469 486.636 324.361 486.076 324.361 485.373V474.865ZM334.645 488.195C333.909 488.195 333.242 488.072 332.643 487.824C332.05 487.57 331.539 487.215 331.109 486.76C330.686 486.304 330.361 485.764 330.133 485.139C329.905 484.514 329.791 483.83 329.791 483.088V482.678C329.791 481.818 329.918 481.053 330.172 480.383C330.426 479.706 330.771 479.133 331.207 478.664C331.643 478.195 332.138 477.84 332.691 477.6C333.245 477.359 333.818 477.238 334.41 477.238C335.165 477.238 335.816 477.368 336.363 477.629C336.917 477.889 337.369 478.254 337.721 478.723C338.072 479.185 338.333 479.732 338.502 480.363C338.671 480.988 338.756 481.672 338.756 482.414V483.225H330.865V481.75H336.949V481.613C336.923 481.145 336.826 480.689 336.656 480.246C336.493 479.803 336.233 479.439 335.875 479.152C335.517 478.866 335.029 478.723 334.41 478.723C334 478.723 333.622 478.811 333.277 478.986C332.932 479.156 332.636 479.41 332.389 479.748C332.141 480.087 331.949 480.5 331.812 480.988C331.676 481.477 331.607 482.04 331.607 482.678V483.088C331.607 483.589 331.676 484.061 331.812 484.504C331.956 484.94 332.161 485.324 332.428 485.656C332.701 485.988 333.03 486.249 333.414 486.438C333.805 486.626 334.247 486.721 334.742 486.721C335.38 486.721 335.921 486.59 336.363 486.33C336.806 486.07 337.193 485.721 337.525 485.285L338.619 486.154C338.391 486.499 338.102 486.828 337.75 487.141C337.398 487.453 336.965 487.707 336.451 487.902C335.943 488.098 335.341 488.195 334.645 488.195ZM340.787 487.043C340.787 486.737 340.882 486.48 341.07 486.271C341.266 486.057 341.546 485.949 341.91 485.949C342.275 485.949 342.551 486.057 342.74 486.271C342.936 486.48 343.033 486.737 343.033 487.043C343.033 487.342 342.936 487.596 342.74 487.805C342.551 488.013 342.275 488.117 341.91 488.117C341.546 488.117 341.266 488.013 341.07 487.805C340.882 487.596 340.787 487.342 340.787 487.043ZM340.797 478.42C340.797 478.114 340.891 477.857 341.08 477.648C341.275 477.434 341.555 477.326 341.92 477.326C342.285 477.326 342.561 477.434 342.75 477.648C342.945 477.857 343.043 478.114 343.043 478.42C343.043 478.719 342.945 478.973 342.75 479.182C342.561 479.39 342.285 479.494 341.92 479.494C341.555 479.494 341.275 479.39 341.08 479.182C340.891 478.973 340.797 478.719 340.797 478.42ZM359.791 486.516V488H350.484V486.701L355.143 481.516C355.715 480.878 356.158 480.337 356.471 479.895C356.79 479.445 357.011 479.045 357.135 478.693C357.265 478.335 357.33 477.971 357.33 477.6C357.33 477.131 357.232 476.708 357.037 476.33C356.848 475.946 356.568 475.64 356.197 475.412C355.826 475.184 355.377 475.07 354.85 475.07C354.218 475.07 353.691 475.194 353.268 475.441C352.851 475.682 352.538 476.021 352.33 476.457C352.122 476.893 352.018 477.395 352.018 477.961H350.211C350.211 477.16 350.387 476.428 350.738 475.764C351.09 475.1 351.611 474.572 352.301 474.182C352.991 473.785 353.84 473.586 354.85 473.586C355.748 473.586 356.516 473.745 357.154 474.064C357.792 474.377 358.281 474.82 358.619 475.393C358.964 475.959 359.137 476.623 359.137 477.385C359.137 477.801 359.065 478.225 358.922 478.654C358.785 479.077 358.593 479.501 358.346 479.924C358.105 480.347 357.822 480.764 357.496 481.174C357.177 481.584 356.835 481.988 356.471 482.385L352.662 486.516H359.791ZM368.209 473.781L362.281 489.221H360.729L366.666 473.781H368.209ZM375.924 473.703V488H374.117V475.959L370.475 477.287V475.656L375.641 473.703H375.924ZM383.873 480.002H385.162C385.794 480.002 386.314 479.898 386.725 479.689C387.141 479.475 387.451 479.185 387.652 478.82C387.861 478.449 387.965 478.033 387.965 477.57C387.965 477.023 387.874 476.564 387.691 476.193C387.509 475.822 387.236 475.542 386.871 475.354C386.507 475.165 386.044 475.07 385.484 475.07C384.977 475.07 384.527 475.171 384.137 475.373C383.753 475.568 383.45 475.848 383.229 476.213C383.014 476.577 382.906 477.007 382.906 477.502H381.1C381.1 476.779 381.282 476.122 381.646 475.529C382.011 474.937 382.522 474.465 383.18 474.113C383.844 473.762 384.612 473.586 385.484 473.586C386.344 473.586 387.096 473.739 387.74 474.045C388.385 474.344 388.886 474.794 389.244 475.393C389.602 475.985 389.781 476.724 389.781 477.609C389.781 477.967 389.697 478.352 389.527 478.762C389.365 479.165 389.107 479.543 388.756 479.895C388.411 480.246 387.962 480.536 387.408 480.764C386.855 480.985 386.191 481.096 385.416 481.096H383.873V480.002ZM383.873 481.486V480.402H385.416C386.321 480.402 387.07 480.51 387.662 480.725C388.255 480.939 388.72 481.226 389.059 481.584C389.404 481.942 389.645 482.336 389.781 482.766C389.924 483.189 389.996 483.612 389.996 484.035C389.996 484.699 389.882 485.288 389.654 485.803C389.433 486.317 389.117 486.753 388.707 487.111C388.303 487.469 387.828 487.74 387.281 487.922C386.734 488.104 386.139 488.195 385.494 488.195C384.876 488.195 384.293 488.107 383.746 487.932C383.206 487.756 382.727 487.502 382.311 487.17C381.894 486.831 381.568 486.418 381.334 485.93C381.1 485.435 380.982 484.872 380.982 484.24H382.789C382.789 484.735 382.896 485.168 383.111 485.539C383.333 485.91 383.645 486.2 384.049 486.408C384.459 486.61 384.941 486.711 385.494 486.711C386.048 486.711 386.523 486.617 386.92 486.428C387.324 486.232 387.633 485.939 387.848 485.549C388.069 485.158 388.18 484.667 388.18 484.074C388.18 483.482 388.056 482.997 387.809 482.619C387.561 482.235 387.21 481.952 386.754 481.77C386.305 481.581 385.774 481.486 385.162 481.486H383.873ZM398.971 473.781L393.043 489.221H391.49L397.428 473.781H398.971ZM410.064 486.516V488H400.758V486.701L405.416 481.516C405.989 480.878 406.432 480.337 406.744 479.895C407.063 479.445 407.285 479.045 407.408 478.693C407.538 478.335 407.604 477.971 407.604 477.6C407.604 477.131 407.506 476.708 407.311 476.33C407.122 475.946 406.842 475.64 406.471 475.412C406.1 475.184 405.65 475.07 405.123 475.07C404.492 475.07 403.964 475.194 403.541 475.441C403.124 475.682 402.812 476.021 402.604 476.457C402.395 476.893 402.291 477.395 402.291 477.961H400.484C400.484 477.16 400.66 476.428 401.012 475.764C401.363 475.1 401.884 474.572 402.574 474.182C403.264 473.785 404.114 473.586 405.123 473.586C406.021 473.586 406.79 473.745 407.428 474.064C408.066 474.377 408.554 474.82 408.893 475.393C409.238 475.959 409.41 476.623 409.41 477.385C409.41 477.801 409.339 478.225 409.195 478.654C409.059 479.077 408.867 479.501 408.619 479.924C408.378 480.347 408.095 480.764 407.77 481.174C407.451 481.584 407.109 481.988 406.744 482.385L402.936 486.516H410.064ZM414.635 480.002H415.924C416.555 480.002 417.076 479.898 417.486 479.689C417.903 479.475 418.212 479.185 418.414 478.82C418.622 478.449 418.727 478.033 418.727 477.57C418.727 477.023 418.635 476.564 418.453 476.193C418.271 475.822 417.997 475.542 417.633 475.354C417.268 475.165 416.806 475.07 416.246 475.07C415.738 475.07 415.289 475.171 414.898 475.373C414.514 475.568 414.212 475.848 413.99 476.213C413.775 476.577 413.668 477.007 413.668 477.502H411.861C411.861 476.779 412.044 476.122 412.408 475.529C412.773 474.937 413.284 474.465 413.941 474.113C414.605 473.762 415.374 473.586 416.246 473.586C417.105 473.586 417.857 473.739 418.502 474.045C419.146 474.344 419.648 474.794 420.006 475.393C420.364 475.985 420.543 476.724 420.543 477.609C420.543 477.967 420.458 478.352 420.289 478.762C420.126 479.165 419.869 479.543 419.518 479.895C419.173 480.246 418.723 480.536 418.17 480.764C417.617 480.985 416.952 481.096 416.178 481.096H414.635V480.002ZM414.635 481.486V480.402H416.178C417.083 480.402 417.831 480.51 418.424 480.725C419.016 480.939 419.482 481.226 419.82 481.584C420.165 481.942 420.406 482.336 420.543 482.766C420.686 483.189 420.758 483.612 420.758 484.035C420.758 484.699 420.644 485.288 420.416 485.803C420.195 486.317 419.879 486.753 419.469 487.111C419.065 487.469 418.59 487.74 418.043 487.922C417.496 488.104 416.9 488.195 416.256 488.195C415.637 488.195 415.055 488.107 414.508 487.932C413.967 487.756 413.489 487.502 413.072 487.17C412.656 486.831 412.33 486.418 412.096 485.93C411.861 485.435 411.744 484.872 411.744 484.24H413.551C413.551 484.735 413.658 485.168 413.873 485.539C414.094 485.91 414.407 486.2 414.811 486.408C415.221 486.61 415.702 486.711 416.256 486.711C416.809 486.711 417.285 486.617 417.682 486.428C418.085 486.232 418.395 485.939 418.609 485.549C418.831 485.158 418.941 484.667 418.941 484.074C418.941 483.482 418.818 482.997 418.57 482.619C418.323 482.235 417.971 481.952 417.516 481.77C417.066 481.581 416.536 481.486 415.924 481.486H414.635Z" fill="#03517A"/>
<path d="M243.68 353.857L237.09 372H234.396L241.984 352.094H243.721L243.68 353.857ZM249.203 372L242.6 353.857L242.559 352.094H244.295L251.91 372H249.203ZM248.861 364.631V366.791H237.678V364.631H248.861ZM255.41 352.094H257.967L264.488 368.322L270.996 352.094H273.566L265.473 372H263.477L255.41 352.094ZM254.576 352.094H256.832L257.201 364.234V372H254.576V352.094ZM272.131 352.094H274.387V372H271.762V364.234L272.131 352.094ZM291.668 369.854V372H281.127V369.854H291.668ZM281.66 352.094V372H279.021V352.094H281.66ZM290.273 360.652V362.799H281.127V360.652H290.273ZM291.531 352.094V354.254H281.127V352.094H291.531ZM294.936 352.094H301.525C303.02 352.094 304.283 352.322 305.312 352.777C306.352 353.233 307.14 353.908 307.678 354.801C308.225 355.685 308.498 356.774 308.498 358.068C308.498 358.98 308.311 359.814 307.938 360.57C307.573 361.318 307.044 361.956 306.352 362.484C305.668 363.004 304.848 363.391 303.891 363.646L303.152 363.934H296.959L296.932 361.787H301.607C302.555 361.787 303.344 361.623 303.973 361.295C304.602 360.958 305.076 360.507 305.395 359.941C305.714 359.376 305.873 358.752 305.873 358.068C305.873 357.303 305.723 356.633 305.422 356.059C305.121 355.484 304.647 355.042 304 354.732C303.362 354.413 302.537 354.254 301.525 354.254H297.574V372H294.936V352.094ZM306.57 372L301.73 362.977L304.479 362.963L309.387 371.836V372H306.57ZM315.02 352.094V372H312.381V352.094H315.02ZM331.836 365.67H334.461C334.324 366.928 333.964 368.053 333.381 369.047C332.798 370.04 331.973 370.829 330.906 371.412C329.84 371.986 328.509 372.273 326.914 372.273C325.747 372.273 324.686 372.055 323.729 371.617C322.781 371.18 321.965 370.56 321.281 369.758C320.598 368.947 320.069 367.976 319.695 366.846C319.331 365.706 319.148 364.439 319.148 363.045V361.062C319.148 359.668 319.331 358.406 319.695 357.275C320.069 356.136 320.602 355.161 321.295 354.35C321.997 353.538 322.84 352.914 323.824 352.477C324.809 352.039 325.916 351.82 327.146 351.82C328.65 351.82 329.922 352.103 330.961 352.668C332 353.233 332.807 354.017 333.381 355.02C333.964 356.013 334.324 357.166 334.461 358.479H331.836C331.708 357.549 331.471 356.751 331.125 356.086C330.779 355.411 330.286 354.892 329.648 354.527C329.01 354.163 328.176 353.98 327.146 353.98C326.262 353.98 325.483 354.149 324.809 354.486C324.143 354.824 323.583 355.302 323.127 355.922C322.68 356.542 322.343 357.285 322.115 358.15C321.887 359.016 321.773 359.978 321.773 361.035V363.045C321.773 364.02 321.874 364.936 322.074 365.793C322.284 366.65 322.598 367.402 323.018 368.049C323.437 368.696 323.97 369.206 324.617 369.58C325.264 369.945 326.03 370.127 326.914 370.127C328.035 370.127 328.928 369.949 329.594 369.594C330.259 369.238 330.76 368.728 331.098 368.062C331.444 367.397 331.69 366.6 331.836 365.67ZM345.426 353.857L338.836 372H336.143L343.73 352.094H345.467L345.426 353.857ZM350.949 372L344.346 353.857L344.305 352.094H346.041L353.656 372H350.949ZM350.607 364.631V366.791H339.424V364.631H350.607ZM366.932 366.969C366.932 366.504 366.859 366.094 366.713 365.738C366.576 365.374 366.33 365.046 365.975 364.754C365.628 364.462 365.145 364.184 364.525 363.92C363.915 363.656 363.14 363.387 362.201 363.113C361.217 362.822 360.328 362.498 359.535 362.143C358.742 361.778 358.063 361.363 357.498 360.898C356.933 360.434 356.5 359.9 356.199 359.299C355.898 358.697 355.748 358.009 355.748 357.234C355.748 356.46 355.908 355.744 356.227 355.088C356.546 354.432 357.001 353.862 357.594 353.379C358.195 352.887 358.911 352.504 359.74 352.23C360.57 351.957 361.495 351.82 362.516 351.82C364.01 351.82 365.277 352.107 366.316 352.682C367.365 353.247 368.162 353.99 368.709 354.91C369.256 355.822 369.529 356.797 369.529 357.836H366.904C366.904 357.089 366.745 356.428 366.426 355.854C366.107 355.27 365.624 354.814 364.977 354.486C364.329 354.149 363.509 353.98 362.516 353.98C361.577 353.98 360.802 354.122 360.191 354.404C359.581 354.687 359.125 355.07 358.824 355.553C358.533 356.036 358.387 356.587 358.387 357.207C358.387 357.626 358.473 358.009 358.646 358.355C358.829 358.693 359.107 359.007 359.48 359.299C359.863 359.59 360.346 359.859 360.93 360.105C361.522 360.352 362.229 360.589 363.049 360.816C364.179 361.135 365.154 361.491 365.975 361.883C366.795 362.275 367.469 362.717 367.998 363.209C368.536 363.692 368.932 364.243 369.188 364.863C369.452 365.474 369.584 366.167 369.584 366.941C369.584 367.753 369.42 368.486 369.092 369.143C368.764 369.799 368.294 370.359 367.684 370.824C367.073 371.289 366.339 371.649 365.482 371.904C364.635 372.15 363.687 372.273 362.639 372.273C361.718 372.273 360.811 372.146 359.918 371.891C359.034 371.635 358.227 371.253 357.498 370.742C356.778 370.232 356.199 369.603 355.762 368.855C355.333 368.099 355.119 367.224 355.119 366.23H357.744C357.744 366.914 357.876 367.502 358.141 367.994C358.405 368.477 358.765 368.878 359.221 369.197C359.686 369.516 360.21 369.753 360.793 369.908C361.385 370.054 362.001 370.127 362.639 370.127C363.559 370.127 364.339 369.999 364.977 369.744C365.615 369.489 366.098 369.124 366.426 368.65C366.763 368.176 366.932 367.616 366.932 366.969ZM384.773 362.498V364.576H378.102V362.498H384.773ZM407.578 360.652V362.799H396.805V360.652H407.578ZM397.215 352.094V372H394.576V352.094H397.215ZM409.875 352.094V372H407.25V352.094H409.875ZM422.18 353.857L415.59 372H412.896L420.484 352.094H422.221L422.18 353.857ZM427.703 372L421.1 353.857L421.059 352.094H422.795L430.41 372H427.703ZM427.361 364.631V366.791H416.178V364.631H427.361ZM433.076 352.094H439.666C441.161 352.094 442.423 352.322 443.453 352.777C444.492 353.233 445.281 353.908 445.818 354.801C446.365 355.685 446.639 356.774 446.639 358.068C446.639 358.98 446.452 359.814 446.078 360.57C445.714 361.318 445.185 361.956 444.492 362.484C443.809 363.004 442.988 363.391 442.031 363.646L441.293 363.934H435.1L435.072 361.787H439.748C440.696 361.787 441.484 361.623 442.113 361.295C442.742 360.958 443.216 360.507 443.535 359.941C443.854 359.376 444.014 358.752 444.014 358.068C444.014 357.303 443.863 356.633 443.562 356.059C443.262 355.484 442.788 355.042 442.141 354.732C441.503 354.413 440.678 354.254 439.666 354.254H435.715V372H433.076V352.094ZM444.711 372L439.871 362.977L442.619 362.963L447.527 371.836V372H444.711ZM450.33 352.094H456.92C458.415 352.094 459.677 352.322 460.707 352.777C461.746 353.233 462.535 353.908 463.072 354.801C463.619 355.685 463.893 356.774 463.893 358.068C463.893 358.98 463.706 359.814 463.332 360.57C462.967 361.318 462.439 361.956 461.746 362.484C461.062 363.004 460.242 363.391 459.285 363.646L458.547 363.934H452.354L452.326 361.787H457.002C457.95 361.787 458.738 361.623 459.367 361.295C459.996 360.958 460.47 360.507 460.789 359.941C461.108 359.376 461.268 358.752 461.268 358.068C461.268 357.303 461.117 356.633 460.816 356.059C460.516 355.484 460.042 355.042 459.395 354.732C458.757 354.413 457.932 354.254 456.92 354.254H452.969V372H450.33V352.094ZM461.965 372L457.125 362.977L459.873 362.963L464.781 371.836V372H461.965ZM470.414 352.094V372H467.775V352.094H470.414ZM485.822 366.969C485.822 366.504 485.749 366.094 485.604 365.738C485.467 365.374 485.221 365.046 484.865 364.754C484.519 364.462 484.036 364.184 483.416 363.92C482.805 363.656 482.031 363.387 481.092 363.113C480.107 362.822 479.219 362.498 478.426 362.143C477.633 361.778 476.954 361.363 476.389 360.898C475.824 360.434 475.391 359.9 475.09 359.299C474.789 358.697 474.639 358.009 474.639 357.234C474.639 356.46 474.798 355.744 475.117 355.088C475.436 354.432 475.892 353.862 476.484 353.379C477.086 352.887 477.801 352.504 478.631 352.23C479.46 351.957 480.385 351.82 481.406 351.82C482.901 351.82 484.168 352.107 485.207 352.682C486.255 353.247 487.053 353.99 487.6 354.91C488.146 355.822 488.42 356.797 488.42 357.836H485.795C485.795 357.089 485.635 356.428 485.316 355.854C484.997 355.27 484.514 354.814 483.867 354.486C483.22 354.149 482.4 353.98 481.406 353.98C480.467 353.98 479.693 354.122 479.082 354.404C478.471 354.687 478.016 355.07 477.715 355.553C477.423 356.036 477.277 356.587 477.277 357.207C477.277 357.626 477.364 358.009 477.537 358.355C477.719 358.693 477.997 359.007 478.371 359.299C478.754 359.59 479.237 359.859 479.82 360.105C480.413 360.352 481.119 360.589 481.939 360.816C483.07 361.135 484.045 361.491 484.865 361.883C485.686 362.275 486.36 362.717 486.889 363.209C487.426 363.692 487.823 364.243 488.078 364.863C488.342 365.474 488.475 366.167 488.475 366.941C488.475 367.753 488.311 368.486 487.982 369.143C487.654 369.799 487.185 370.359 486.574 370.824C485.964 371.289 485.23 371.649 484.373 371.904C483.525 372.15 482.577 372.273 481.529 372.273C480.609 372.273 479.702 372.146 478.809 371.891C477.924 371.635 477.118 371.253 476.389 370.742C475.669 370.232 475.09 369.603 474.652 368.855C474.224 368.099 474.01 367.224 474.01 366.23H476.635C476.635 366.914 476.767 367.502 477.031 367.994C477.296 368.477 477.656 368.878 478.111 369.197C478.576 369.516 479.1 369.753 479.684 369.908C480.276 370.054 480.891 370.127 481.529 370.127C482.45 370.127 483.229 369.999 483.867 369.744C484.505 369.489 484.988 369.124 485.316 368.65C485.654 368.176 485.822 367.616 485.822 366.969ZM498.934 362.689H493.889L493.861 360.57H498.441C499.198 360.57 499.859 360.443 500.424 360.188C500.989 359.932 501.426 359.568 501.736 359.094C502.055 358.611 502.215 358.036 502.215 357.371C502.215 356.642 502.074 356.049 501.791 355.594C501.518 355.129 501.094 354.792 500.52 354.582C499.954 354.363 499.234 354.254 498.359 354.254H494.477V372H491.838V352.094H498.359C499.38 352.094 500.292 352.199 501.094 352.408C501.896 352.609 502.575 352.928 503.131 353.365C503.696 353.794 504.124 354.34 504.416 355.006C504.708 355.671 504.854 356.469 504.854 357.398C504.854 358.219 504.644 358.962 504.225 359.627C503.805 360.283 503.222 360.821 502.475 361.24C501.736 361.66 500.87 361.928 499.877 362.047L498.934 362.689ZM498.811 372H492.85L494.34 369.854H498.811C499.649 369.854 500.36 369.708 500.943 369.416C501.536 369.124 501.987 368.714 502.297 368.186C502.607 367.648 502.762 367.014 502.762 366.285C502.762 365.547 502.63 364.909 502.365 364.371C502.101 363.833 501.686 363.419 501.121 363.127C500.556 362.835 499.827 362.689 498.934 362.689H495.174L495.201 360.57H500.342L500.902 361.336C501.859 361.418 502.671 361.691 503.336 362.156C504.001 362.612 504.507 363.195 504.854 363.906C505.209 364.617 505.387 365.401 505.387 366.258C505.387 367.497 505.113 368.546 504.566 369.402C504.029 370.25 503.268 370.897 502.283 371.344C501.299 371.781 500.141 372 498.811 372ZM520.672 352.094H523.297V365.561C523.297 367.055 522.964 368.299 522.299 369.293C521.633 370.286 520.749 371.034 519.646 371.535C518.553 372.027 517.363 372.273 516.078 372.273C514.729 372.273 513.508 372.027 512.414 371.535C511.329 371.034 510.468 370.286 509.83 369.293C509.201 368.299 508.887 367.055 508.887 365.561V352.094H511.498V365.561C511.498 366.6 511.689 367.456 512.072 368.131C512.455 368.805 512.988 369.307 513.672 369.635C514.365 369.963 515.167 370.127 516.078 370.127C516.999 370.127 517.801 369.963 518.484 369.635C519.177 369.307 519.715 368.805 520.098 368.131C520.48 367.456 520.672 366.6 520.672 365.561V352.094ZM527.439 352.094H534.029C535.524 352.094 536.786 352.322 537.816 352.777C538.855 353.233 539.644 353.908 540.182 354.801C540.729 355.685 541.002 356.774 541.002 358.068C541.002 358.98 540.815 359.814 540.441 360.57C540.077 361.318 539.548 361.956 538.855 362.484C538.172 363.004 537.352 363.391 536.395 363.646L535.656 363.934H529.463L529.436 361.787H534.111C535.059 361.787 535.848 361.623 536.477 361.295C537.105 360.958 537.579 360.507 537.898 359.941C538.217 359.376 538.377 358.752 538.377 358.068C538.377 357.303 538.227 356.633 537.926 356.059C537.625 355.484 537.151 355.042 536.504 354.732C535.866 354.413 535.041 354.254 534.029 354.254H530.078V372H527.439V352.094ZM539.074 372L534.234 362.977L536.982 362.963L541.891 371.836V372H539.074ZM559.404 362.088V369.375C559.158 369.74 558.766 370.15 558.229 370.605C557.691 371.052 556.948 371.444 556 371.781C555.061 372.109 553.849 372.273 552.363 372.273C551.151 372.273 550.035 372.064 549.014 371.645C548.002 371.216 547.122 370.596 546.375 369.785C545.637 368.965 545.062 367.971 544.652 366.805C544.251 365.629 544.051 364.298 544.051 362.812V361.268C544.051 359.782 544.224 358.456 544.57 357.289C544.926 356.122 545.445 355.133 546.129 354.322C546.812 353.502 547.651 352.882 548.645 352.463C549.638 352.035 550.777 351.82 552.062 351.82C553.585 351.82 554.856 352.085 555.877 352.613C556.907 353.133 557.709 353.853 558.283 354.773C558.867 355.694 559.24 356.742 559.404 357.918H556.766C556.647 357.198 556.41 356.542 556.055 355.949C555.708 355.357 555.212 354.883 554.564 354.527C553.917 354.163 553.083 353.98 552.062 353.98C551.142 353.98 550.344 354.149 549.67 354.486C548.995 354.824 548.439 355.307 548.002 355.936C547.564 356.564 547.236 357.326 547.018 358.219C546.808 359.112 546.703 360.119 546.703 361.24V362.812C546.703 363.961 546.835 364.986 547.1 365.889C547.373 366.791 547.76 367.561 548.262 368.199C548.763 368.828 549.36 369.307 550.053 369.635C550.755 369.963 551.529 370.127 552.377 370.127C553.316 370.127 554.077 370.049 554.66 369.895C555.243 369.73 555.699 369.539 556.027 369.32C556.355 369.092 556.606 368.878 556.779 368.678V364.221H552.172V362.088H559.404Z" fill="black"/>
</svg>
